<mxfile host="Electron" modified="2023-12-19T04:43:55.109Z" agent="Mozilla/5.0 (X11; Linux x86_64) AppleWebKit/537.36 (KHTML, like Gecko) draw.io/22.1.11 Chrome/114.0.5735.289 Electron/25.9.8 Safari/537.36" etag="lpEFrWAfyMcrt8jWRk5n" version="22.1.11" type="device" pages="2">
  <diagram name="Page-1" id="gW31gIMJ3BherKPmJ3Th">
    <mxGraphModel dx="4097" dy="2409" grid="0" gridSize="10" guides="1" tooltips="1" connect="1" arrows="1" fold="1" page="1" pageScale="1" pageWidth="3150" pageHeight="2200" background="#211C29" math="0" shadow="0">
      <root>
        <mxCell id="0" />
        <mxCell id="1" parent="0" />
        <mxCell id="sZFFOiMdw_IDjeqmHJVP-1" value="Algorithm: Functions" style="shape=table;startSize=50;container=1;collapsible=0;childLayout=tableLayout;fixedRows=1;rowLines=0;fontStyle=0;strokeColor=#FFFFFF;fontSize=28;fontFamily=Courier New;fontColor=#FFFFFF;fillColor=none;" vertex="1" parent="1">
          <mxGeometry x="2441.19" y="80" width="647.63" height="2060" as="geometry" />
        </mxCell>
        <mxCell id="sZFFOiMdw_IDjeqmHJVP-2" style="shape=tableRow;horizontal=0;startSize=0;swimlaneHead=0;swimlaneBody=0;top=0;left=0;bottom=0;right=0;collapsible=0;dropTarget=0;fillColor=none;points=[[0,0.5],[1,0.5]];portConstraint=eastwest;strokeColor=inherit;fontSize=16;fontColor=#FFFFFF;" vertex="1" parent="sZFFOiMdw_IDjeqmHJVP-1">
          <mxGeometry y="50" width="647.63" height="220" as="geometry" />
        </mxCell>
        <mxCell id="sZFFOiMdw_IDjeqmHJVP-3" value="Algorithm.__init__()" style="shape=partialRectangle;html=1;whiteSpace=wrap;connectable=0;fillColor=none;top=0;left=0;bottom=0;right=0;overflow=hidden;pointerEvents=1;strokeColor=inherit;fontSize=17;fontFamily=Courier New;fontColor=#FFFFFF;" vertex="1" parent="sZFFOiMdw_IDjeqmHJVP-2">
          <mxGeometry width="291" height="220" as="geometry">
            <mxRectangle width="291" height="220" as="alternateBounds" />
          </mxGeometry>
        </mxCell>
        <mxCell id="sZFFOiMdw_IDjeqmHJVP-4" value="&lt;u&gt;Inputs&lt;/u&gt;&lt;br&gt;&lt;font face=&quot;Courier New&quot;&gt;num_genes: int, gene_shape: tuple, mutation_rate: float, iterations: int&lt;/font&gt;&lt;br&gt;&lt;br&gt;&lt;u&gt;Returns&lt;/u&gt;&amp;nbsp;&lt;br&gt;&lt;font face=&quot;Courier New&quot;&gt;None&lt;/font&gt;&lt;br&gt;&lt;br&gt;Use this constructor to add your own personalized algorithm variables. For example, a dictionary to track the top n highest fitness genes tested so far.&amp;nbsp;" style="shape=partialRectangle;html=1;whiteSpace=wrap;connectable=0;fillColor=none;top=0;left=0;bottom=0;right=0;align=left;spacingLeft=6;overflow=hidden;strokeColor=inherit;fontSize=14;fontColor=#FFFFFF;" vertex="1" parent="sZFFOiMdw_IDjeqmHJVP-2">
          <mxGeometry x="291" width="357" height="220" as="geometry">
            <mxRectangle width="357" height="220" as="alternateBounds" />
          </mxGeometry>
        </mxCell>
        <mxCell id="sZFFOiMdw_IDjeqmHJVP-5" value="" style="shape=tableRow;horizontal=0;startSize=0;swimlaneHead=0;swimlaneBody=0;top=0;left=0;bottom=0;right=0;collapsible=0;dropTarget=0;fillColor=none;points=[[0,0.5],[1,0.5]];portConstraint=eastwest;strokeColor=inherit;fontSize=16;fontColor=#FFFFFF;" vertex="1" parent="sZFFOiMdw_IDjeqmHJVP-1">
          <mxGeometry y="270" width="647.63" height="210" as="geometry" />
        </mxCell>
        <mxCell id="sZFFOiMdw_IDjeqmHJVP-6" value="&lt;p style=&quot;font-size: 17px; text-align: left;&quot;&gt;Algorithm.initial_gene()&lt;/p&gt;" style="shape=partialRectangle;html=1;whiteSpace=wrap;connectable=0;fillColor=none;top=0;left=0;bottom=0;right=0;overflow=hidden;strokeColor=inherit;fontSize=17;fontFamily=Courier New;fontColor=#FFFFFF;" vertex="1" parent="sZFFOiMdw_IDjeqmHJVP-5">
          <mxGeometry width="291" height="210" as="geometry">
            <mxRectangle width="291" height="210" as="alternateBounds" />
          </mxGeometry>
        </mxCell>
        <mxCell id="sZFFOiMdw_IDjeqmHJVP-7" value="&lt;u&gt;Inputs&lt;/u&gt;&amp;nbsp;&lt;br&gt;&lt;font face=&quot;Courier New&quot;&gt;None&lt;/font&gt;&lt;br style=&quot;font-size: 14px;&quot;&gt;&lt;br style=&quot;font-size: 14px;&quot;&gt;&lt;u&gt;Returns&lt;/u&gt;&lt;br style=&quot;font-size: 14px;&quot;&gt;&lt;font face=&quot;Courier New&quot;&gt;np.array()&lt;/font&gt;&lt;br style=&quot;font-size: 14px;&quot;&gt;&lt;br style=&quot;font-size: 14px;&quot;&gt;Generate and return an initial gene. Ideally a randomly generated array." style="shape=partialRectangle;html=1;whiteSpace=wrap;connectable=0;fillColor=none;top=0;left=0;bottom=0;right=0;align=left;spacingLeft=6;overflow=hidden;strokeColor=inherit;fontSize=14;fontColor=#FFFFFF;" vertex="1" parent="sZFFOiMdw_IDjeqmHJVP-5">
          <mxGeometry x="291" width="357" height="210" as="geometry">
            <mxRectangle width="357" height="210" as="alternateBounds" />
          </mxGeometry>
        </mxCell>
        <mxCell id="sZFFOiMdw_IDjeqmHJVP-8" value="" style="shape=tableRow;horizontal=0;startSize=0;swimlaneHead=0;swimlaneBody=0;top=0;left=0;bottom=0;right=0;collapsible=0;dropTarget=0;fillColor=none;points=[[0,0.5],[1,0.5]];portConstraint=eastwest;strokeColor=inherit;fontSize=16;fontColor=#FFFFFF;" vertex="1" parent="sZFFOiMdw_IDjeqmHJVP-1">
          <mxGeometry y="480" width="647.63" height="250" as="geometry" />
        </mxCell>
        <mxCell id="sZFFOiMdw_IDjeqmHJVP-9" value="Algorithm.fetch_gene()" style="shape=partialRectangle;html=1;whiteSpace=wrap;connectable=0;fillColor=none;top=0;left=0;bottom=0;right=0;overflow=hidden;pointerEvents=1;strokeColor=inherit;fontSize=17;fontFamily=Courier New;fontColor=#FFFFFF;" vertex="1" parent="sZFFOiMdw_IDjeqmHJVP-8">
          <mxGeometry width="291" height="250" as="geometry">
            <mxRectangle width="291" height="250" as="alternateBounds" />
          </mxGeometry>
        </mxCell>
        <mxCell id="sZFFOiMdw_IDjeqmHJVP-10" value="&lt;u&gt;Inputs&lt;/u&gt;&amp;nbsp;&lt;br&gt;&lt;font face=&quot;Courier New&quot;&gt;None&lt;/font&gt;&lt;br style=&quot;font-size: 14px;&quot;&gt;&lt;br style=&quot;font-size: 14px;&quot;&gt;&lt;u&gt;Return&lt;/u&gt;:&lt;br style=&quot;font-size: 14px;&quot;&gt;&lt;font face=&quot;Courier New&quot;&gt;np.array&lt;br style=&quot;font-size: 14px;&quot;&gt;&lt;/font&gt;&lt;br style=&quot;font-size: 14px;&quot;&gt;Function that is called to create new gene. Function should decide what to do given the current state of the algorithm. Should contain an &#39;If&#39; statement that handles different state conditions. Returns a newly created gene." style="shape=partialRectangle;html=1;whiteSpace=wrap;connectable=0;fillColor=none;top=0;left=0;bottom=0;right=0;align=left;spacingLeft=6;overflow=hidden;strokeColor=inherit;fontSize=14;fontColor=#FFFFFF;" vertex="1" parent="sZFFOiMdw_IDjeqmHJVP-8">
          <mxGeometry x="291" width="357" height="250" as="geometry">
            <mxRectangle width="357" height="250" as="alternateBounds" />
          </mxGeometry>
        </mxCell>
        <mxCell id="sZFFOiMdw_IDjeqmHJVP-11" value="" style="shape=tableRow;horizontal=0;startSize=0;swimlaneHead=0;swimlaneBody=0;top=0;left=0;bottom=0;right=0;collapsible=0;dropTarget=0;fillColor=none;points=[[0,0.5],[1,0.5]];portConstraint=eastwest;strokeColor=inherit;fontSize=16;fontColor=#FFFFFF;" vertex="1" parent="sZFFOiMdw_IDjeqmHJVP-1">
          <mxGeometry y="730" width="647.63" height="240" as="geometry" />
        </mxCell>
        <mxCell id="sZFFOiMdw_IDjeqmHJVP-12" value="Algorithm.create_new_gene()" style="shape=partialRectangle;html=1;whiteSpace=wrap;connectable=0;fillColor=none;top=0;left=0;bottom=0;right=0;overflow=hidden;strokeColor=inherit;fontSize=17;fontFamily=Courier New;fontColor=#FFFFFF;" vertex="1" parent="sZFFOiMdw_IDjeqmHJVP-11">
          <mxGeometry width="291" height="240" as="geometry">
            <mxRectangle width="291" height="240" as="alternateBounds" />
          </mxGeometry>
        </mxCell>
        <mxCell id="sZFFOiMdw_IDjeqmHJVP-13" value="&lt;u&gt;Inputs&lt;br&gt;&lt;/u&gt;&lt;font face=&quot;Courier New&quot;&gt;None&lt;/font&gt;&lt;br style=&quot;font-size: 14px;&quot;&gt;&lt;br style=&quot;font-size: 14px;&quot;&gt;&lt;u&gt;Returns&lt;/u&gt;&lt;br style=&quot;font-size: 14px;&quot;&gt;&lt;font face=&quot;Courier New&quot;&gt;np.array&lt;br style=&quot;font-size: 14px;&quot;&gt;&lt;/font&gt;&lt;br style=&quot;font-size: 14px;&quot;&gt;Logic to create new gene. Intended use: utilize select_parents(), crossover(), mutate(), to generate a new gene. Returns new gene." style="shape=partialRectangle;html=1;whiteSpace=wrap;connectable=0;fillColor=none;top=0;left=0;bottom=0;right=0;align=left;spacingLeft=6;overflow=hidden;strokeColor=inherit;fontSize=14;fontColor=#FFFFFF;" vertex="1" parent="sZFFOiMdw_IDjeqmHJVP-11">
          <mxGeometry x="291" width="357" height="240" as="geometry">
            <mxRectangle width="357" height="240" as="alternateBounds" />
          </mxGeometry>
        </mxCell>
        <mxCell id="sZFFOiMdw_IDjeqmHJVP-14" style="shape=tableRow;horizontal=0;startSize=0;swimlaneHead=0;swimlaneBody=0;top=0;left=0;bottom=0;right=0;collapsible=0;dropTarget=0;fillColor=none;points=[[0,0.5],[1,0.5]];portConstraint=eastwest;strokeColor=inherit;fontSize=16;fontColor=#FFFFFF;" vertex="1" parent="sZFFOiMdw_IDjeqmHJVP-1">
          <mxGeometry y="970" width="647.63" height="250" as="geometry" />
        </mxCell>
        <mxCell id="sZFFOiMdw_IDjeqmHJVP-15" value="&lt;p style=&quot;font-size: 17px; text-align: left;&quot;&gt;Algorithm.remove_weak()&lt;/p&gt;&lt;div style=&quot;font-size: 17px;&quot;&gt;&lt;br style=&quot;font-size: 17px;&quot;&gt;&lt;/div&gt;" style="shape=partialRectangle;html=1;whiteSpace=wrap;connectable=0;fillColor=none;top=0;left=0;bottom=0;right=0;overflow=hidden;strokeColor=inherit;fontSize=17;fontFamily=Courier New;fontColor=#FFFFFF;" vertex="1" parent="sZFFOiMdw_IDjeqmHJVP-14">
          <mxGeometry width="291" height="250" as="geometry">
            <mxRectangle width="291" height="250" as="alternateBounds" />
          </mxGeometry>
        </mxCell>
        <mxCell id="sZFFOiMdw_IDjeqmHJVP-16" value="&lt;u&gt;Inputs&lt;br&gt;&lt;/u&gt;&lt;font face=&quot;Courier New&quot;&gt;None&lt;/font&gt;&lt;br style=&quot;font-size: 14px;&quot;&gt;&lt;br style=&quot;font-size: 14px;&quot;&gt;&lt;u&gt;Returns&lt;br&gt;&lt;/u&gt;&lt;font face=&quot;Courier New&quot;&gt;None&lt;/font&gt;&lt;br style=&quot;font-size: 14px;&quot;&gt;&lt;br style=&quot;font-size: 14px;&quot;&gt;Used to prune the pool. Intended to be called during fetch_gene() (because this is the function that iterates the algorithm). Note the pool (self.pool) is a class object, so no args)" style="shape=partialRectangle;html=1;whiteSpace=wrap;connectable=0;fillColor=none;top=0;left=0;bottom=0;right=0;align=left;spacingLeft=6;overflow=hidden;strokeColor=inherit;fontSize=14;fontColor=#FFFFFF;" vertex="1" parent="sZFFOiMdw_IDjeqmHJVP-14">
          <mxGeometry x="291" width="357" height="250" as="geometry">
            <mxRectangle width="357" height="250" as="alternateBounds" />
          </mxGeometry>
        </mxCell>
        <mxCell id="sZFFOiMdw_IDjeqmHJVP-17" style="shape=tableRow;horizontal=0;startSize=0;swimlaneHead=0;swimlaneBody=0;top=0;left=0;bottom=0;right=0;collapsible=0;dropTarget=0;fillColor=none;points=[[0,0.5],[1,0.5]];portConstraint=eastwest;strokeColor=inherit;fontSize=16;fontColor=#FFFFFF;" vertex="1" parent="sZFFOiMdw_IDjeqmHJVP-1">
          <mxGeometry y="1220" width="647.63" height="210" as="geometry" />
        </mxCell>
        <mxCell id="sZFFOiMdw_IDjeqmHJVP-18" value="&lt;p style=&quot;font-size: 17px; text-align: left;&quot;&gt;Algorithm.select_parents()&lt;/p&gt;" style="shape=partialRectangle;html=1;whiteSpace=wrap;connectable=0;fillColor=none;top=0;left=0;bottom=0;right=0;overflow=hidden;strokeColor=inherit;fontSize=17;fontFamily=Courier New;fontColor=#FFFFFF;" vertex="1" parent="sZFFOiMdw_IDjeqmHJVP-17">
          <mxGeometry width="291" height="210" as="geometry">
            <mxRectangle width="291" height="210" as="alternateBounds" />
          </mxGeometry>
        </mxCell>
        <mxCell id="sZFFOiMdw_IDjeqmHJVP-19" value="&lt;u&gt;Input&lt;br&gt;&lt;/u&gt;&lt;font face=&quot;Courier New&quot;&gt;None&lt;/font&gt;&lt;br style=&quot;font-size: 14px;&quot;&gt;&lt;br style=&quot;font-size: 14px;&quot;&gt;&lt;u&gt;Returns&lt;/u&gt;&amp;nbsp;&lt;br style=&quot;font-size: 14px;&quot;&gt;&lt;font face=&quot;Courier New&quot;&gt;[ np.array ]&lt;br style=&quot;font-size: 14px;&quot;&gt;&lt;/font&gt;&lt;br style=&quot;font-size: 14px;&quot;&gt;Selects two or more genes as &#39;parent genes&#39;, intended for &#39;breeding&#39; new genes. Ideally, parents selected for higher fitness (&#39;survival of the fittest&#39; strategy). Returns two+ parent genes." style="shape=partialRectangle;html=1;whiteSpace=wrap;connectable=0;fillColor=none;top=0;left=0;bottom=0;right=0;align=left;spacingLeft=6;overflow=hidden;strokeColor=inherit;fontSize=14;fontColor=#FFFFFF;" vertex="1" parent="sZFFOiMdw_IDjeqmHJVP-17">
          <mxGeometry x="291" width="357" height="210" as="geometry">
            <mxRectangle width="357" height="210" as="alternateBounds" />
          </mxGeometry>
        </mxCell>
        <mxCell id="sZFFOiMdw_IDjeqmHJVP-20" style="shape=tableRow;horizontal=0;startSize=0;swimlaneHead=0;swimlaneBody=0;top=0;left=0;bottom=0;right=0;collapsible=0;dropTarget=0;fillColor=none;points=[[0,0.5],[1,0.5]];portConstraint=eastwest;strokeColor=inherit;fontSize=16;fontColor=#FFFFFF;" vertex="1" parent="sZFFOiMdw_IDjeqmHJVP-1">
          <mxGeometry y="1430" width="647.63" height="220" as="geometry" />
        </mxCell>
        <mxCell id="sZFFOiMdw_IDjeqmHJVP-21" value="&lt;p style=&quot;font-size: 17px; text-align: left;&quot;&gt;Algorithm.crossover()&lt;/p&gt;" style="shape=partialRectangle;html=1;whiteSpace=wrap;connectable=0;fillColor=none;top=0;left=0;bottom=0;right=0;overflow=hidden;strokeColor=inherit;fontSize=17;fontFamily=Courier New;fontColor=#FFFFFF;" vertex="1" parent="sZFFOiMdw_IDjeqmHJVP-20">
          <mxGeometry width="291" height="220" as="geometry">
            <mxRectangle width="291" height="220" as="alternateBounds" />
          </mxGeometry>
        </mxCell>
        <mxCell id="sZFFOiMdw_IDjeqmHJVP-22" value="&lt;u&gt;Inputs&lt;br style=&quot;font-size: 14px;&quot;&gt;&lt;/u&gt;&lt;font face=&quot;Courier New&quot;&gt;p1: np.array, p2: np.array&lt;br style=&quot;font-size: 14px;&quot;&gt;&lt;/font&gt;&lt;br style=&quot;font-size: 14px;&quot;&gt;&lt;u&gt;Returns&lt;/u&gt;&lt;br style=&quot;font-size: 14px;&quot;&gt;&lt;font face=&quot;Courier New&quot;&gt;np.array&lt;br style=&quot;font-size: 14px;&quot;&gt;&lt;/font&gt;&lt;br style=&quot;font-size: 14px;&quot;&gt;Input is two genes representing &#39;parent&#39; genes for &#39;breeding&#39;. Sections of these genes should be spliced to create a new &#39;child&#39; gene that&#39;s returned.&amp;nbsp;" style="shape=partialRectangle;html=1;whiteSpace=wrap;connectable=0;fillColor=none;top=0;left=0;bottom=0;right=0;align=left;spacingLeft=6;overflow=hidden;strokeColor=inherit;fontSize=14;fontColor=#FFFFFF;" vertex="1" parent="sZFFOiMdw_IDjeqmHJVP-20">
          <mxGeometry x="291" width="357" height="220" as="geometry">
            <mxRectangle width="357" height="220" as="alternateBounds" />
          </mxGeometry>
        </mxCell>
        <mxCell id="sZFFOiMdw_IDjeqmHJVP-23" style="shape=tableRow;horizontal=0;startSize=0;swimlaneHead=0;swimlaneBody=0;top=0;left=0;bottom=0;right=0;collapsible=0;dropTarget=0;fillColor=none;points=[[0,0.5],[1,0.5]];portConstraint=eastwest;strokeColor=inherit;fontSize=16;fontColor=#FFFFFF;" vertex="1" parent="sZFFOiMdw_IDjeqmHJVP-1">
          <mxGeometry y="1650" width="647.63" height="210" as="geometry" />
        </mxCell>
        <mxCell id="sZFFOiMdw_IDjeqmHJVP-24" value="&lt;p style=&quot;font-size: 17px; text-align: left;&quot;&gt;Algorithm.mutate()&lt;/p&gt;" style="shape=partialRectangle;html=1;whiteSpace=wrap;connectable=0;fillColor=none;top=0;left=0;bottom=0;right=0;overflow=hidden;strokeColor=inherit;fontSize=17;fontFamily=Courier New;fontColor=#FFFFFF;" vertex="1" parent="sZFFOiMdw_IDjeqmHJVP-23">
          <mxGeometry width="291" height="210" as="geometry">
            <mxRectangle width="291" height="210" as="alternateBounds" />
          </mxGeometry>
        </mxCell>
        <mxCell id="sZFFOiMdw_IDjeqmHJVP-25" value="&lt;u&gt;Inputs&lt;/u&gt;&lt;br style=&quot;font-size: 14px;&quot;&gt;&lt;font face=&quot;Courier New&quot;&gt;gene: np.array&lt;br style=&quot;font-size: 14px;&quot;&gt;&lt;/font&gt;&lt;br style=&quot;font-size: 14px;&quot;&gt;&lt;u&gt;Returns&lt;/u&gt;:&lt;br style=&quot;font-size: 14px;&quot;&gt;&lt;font face=&quot;Courier New&quot;&gt;np.array&lt;br style=&quot;font-size: 14px;&quot;&gt;&lt;/font&gt;&lt;br style=&quot;font-size: 14px;&quot;&gt;Take in a gene and apply a mutation to it. Ideally some random variation applied to a small part of the gene. Return mutated gene" style="shape=partialRectangle;html=1;whiteSpace=wrap;connectable=0;fillColor=none;top=0;left=0;bottom=0;right=0;align=left;spacingLeft=6;overflow=hidden;strokeColor=inherit;fontSize=14;fontColor=#FFFFFF;" vertex="1" parent="sZFFOiMdw_IDjeqmHJVP-23">
          <mxGeometry x="291" width="357" height="210" as="geometry">
            <mxRectangle width="357" height="210" as="alternateBounds" />
          </mxGeometry>
        </mxCell>
        <mxCell id="sZFFOiMdw_IDjeqmHJVP-26" style="shape=tableRow;horizontal=0;startSize=0;swimlaneHead=0;swimlaneBody=0;top=0;left=0;bottom=0;right=0;collapsible=0;dropTarget=0;fillColor=none;points=[[0,0.5],[1,0.5]];portConstraint=eastwest;strokeColor=inherit;fontSize=16;fontColor=#FFFFFF;" vertex="1" parent="sZFFOiMdw_IDjeqmHJVP-1">
          <mxGeometry y="1860" width="647.63" height="200" as="geometry" />
        </mxCell>
        <mxCell id="sZFFOiMdw_IDjeqmHJVP-27" value="&lt;font style=&quot;font-size: 17px;&quot;&gt;Algorithm.end_condition()&lt;/font&gt;" style="shape=partialRectangle;html=1;whiteSpace=wrap;connectable=0;fillColor=none;top=0;left=0;bottom=0;right=0;overflow=hidden;strokeColor=inherit;fontSize=17;fontFamily=Courier New;fontColor=#FFFFFF;" vertex="1" parent="sZFFOiMdw_IDjeqmHJVP-26">
          <mxGeometry width="291" height="200" as="geometry">
            <mxRectangle width="291" height="200" as="alternateBounds" />
          </mxGeometry>
        </mxCell>
        <mxCell id="sZFFOiMdw_IDjeqmHJVP-28" value="&lt;u&gt;Inputs&lt;/u&gt;&amp;nbsp;&lt;br&gt;&lt;font face=&quot;Courier New&quot;&gt;None&lt;/font&gt;&lt;br style=&quot;font-size: 14px;&quot;&gt;&lt;br style=&quot;font-size: 14px;&quot;&gt;&lt;u&gt;Returns&lt;/u&gt;&lt;br style=&quot;font-size: 14px;&quot;&gt;&lt;font face=&quot;Courier New&quot;&gt;bool&lt;/font&gt;&lt;br style=&quot;font-size: 14px;&quot;&gt;&lt;br style=&quot;font-size: 14px;&quot;&gt;Checks state of algorithm for an end condition, returns True if that condition is met. Otherwise returns False.&amp;nbsp;&amp;nbsp;" style="shape=partialRectangle;html=1;whiteSpace=wrap;connectable=0;fillColor=none;top=0;left=0;bottom=0;right=0;align=left;spacingLeft=6;overflow=hidden;strokeColor=inherit;fontSize=14;fontColor=#FFFFFF;" vertex="1" parent="sZFFOiMdw_IDjeqmHJVP-26">
          <mxGeometry x="291" width="357" height="200" as="geometry">
            <mxRectangle width="357" height="200" as="alternateBounds" />
          </mxGeometry>
        </mxCell>
        <mxCell id="sZFFOiMdw_IDjeqmHJVP-29" value="Model: Functions" style="shape=table;startSize=54;container=1;collapsible=0;childLayout=tableLayout;fixedRows=1;rowLines=0;fontStyle=0;strokeColor=#FFFFFF;fontSize=28;fontFamily=Courier New;fontColor=#FFFFFF;fillColor=none;" vertex="1" parent="1">
          <mxGeometry x="1841.19" y="80" width="557.63" height="920" as="geometry" />
        </mxCell>
        <mxCell id="sZFFOiMdw_IDjeqmHJVP-30" value="" style="shape=tableRow;horizontal=0;startSize=0;swimlaneHead=0;swimlaneBody=0;top=0;left=0;bottom=0;right=0;collapsible=0;dropTarget=0;fillColor=none;points=[[0,0.5],[1,0.5]];portConstraint=eastwest;strokeColor=inherit;fontSize=16;fontColor=#FFFFFF;" vertex="1" parent="sZFFOiMdw_IDjeqmHJVP-29">
          <mxGeometry y="54" width="557.63" height="356" as="geometry" />
        </mxCell>
        <mxCell id="sZFFOiMdw_IDjeqmHJVP-31" value="Model.run()" style="shape=partialRectangle;html=1;whiteSpace=wrap;connectable=0;fillColor=none;top=0;left=0;bottom=0;right=0;overflow=hidden;pointerEvents=1;strokeColor=inherit;fontSize=17;fontFamily=Courier New;fontColor=#FFFFFF;" vertex="1" parent="sZFFOiMdw_IDjeqmHJVP-30">
          <mxGeometry width="250" height="356" as="geometry">
            <mxRectangle width="250" height="356" as="alternateBounds" />
          </mxGeometry>
        </mxCell>
        <mxCell id="sZFFOiMdw_IDjeqmHJVP-32" value="&lt;font style=&quot;font-size: 16px;&quot;&gt;&lt;u&gt;Inputs&lt;/u&gt;&lt;br&gt;&lt;font face=&quot;Courier New&quot;&gt;gene: np.array&lt;br style=&quot;&quot;&gt;&lt;/font&gt;&lt;br style=&quot;&quot;&gt;&lt;u&gt;Returns&lt;/u&gt;&lt;br style=&quot;&quot;&gt;&lt;font face=&quot;Courier New&quot;&gt;float&lt;/font&gt;&lt;/font&gt;&lt;br style=&quot;font-size: 14px;&quot;&gt;&lt;br style=&quot;font-size: 14px;&quot;&gt;Function that should contain the model you want to test. The input gene are the parameters for the model, and the fitness of those parameters after being tested in the model should be returned as a float.&amp;nbsp;&lt;br&gt;&lt;br&gt;&lt;b&gt;Example&lt;/b&gt;: model is a Torch ANN, with the input (gene) being the weight matrices. In this case, in the run() function I would load the ANN with the given weights and test it. A good fitness value to return would be the testing accuracy of the model with those weights." style="shape=partialRectangle;html=1;whiteSpace=wrap;connectable=0;fillColor=none;top=0;left=0;bottom=0;right=0;align=left;spacingLeft=6;overflow=hidden;strokeColor=inherit;fontSize=14;fontColor=#FFFFFF;" vertex="1" parent="sZFFOiMdw_IDjeqmHJVP-30">
          <mxGeometry x="250" width="308" height="356" as="geometry">
            <mxRectangle width="308" height="356" as="alternateBounds" />
          </mxGeometry>
        </mxCell>
        <mxCell id="sZFFOiMdw_IDjeqmHJVP-33" style="shape=tableRow;horizontal=0;startSize=0;swimlaneHead=0;swimlaneBody=0;top=0;left=0;bottom=0;right=0;collapsible=0;dropTarget=0;fillColor=none;points=[[0,0.5],[1,0.5]];portConstraint=eastwest;strokeColor=inherit;fontSize=16;fontColor=#FFFFFF;" vertex="1" parent="sZFFOiMdw_IDjeqmHJVP-29">
          <mxGeometry y="410" width="557.63" height="290" as="geometry" />
        </mxCell>
        <mxCell id="sZFFOiMdw_IDjeqmHJVP-34" value="Model.load_data()" style="shape=partialRectangle;html=1;whiteSpace=wrap;connectable=0;fillColor=none;top=0;left=0;bottom=0;right=0;overflow=hidden;pointerEvents=1;strokeColor=inherit;fontSize=17;fontFamily=Courier New;strokeWidth=9;fontColor=#FFFFFF;" vertex="1" parent="sZFFOiMdw_IDjeqmHJVP-33">
          <mxGeometry width="250" height="290" as="geometry">
            <mxRectangle width="250" height="290" as="alternateBounds" />
          </mxGeometry>
        </mxCell>
        <mxCell id="sZFFOiMdw_IDjeqmHJVP-35" value="&lt;font style=&quot;font-size: 16px;&quot;&gt;&lt;u&gt;Inputs&lt;/u&gt;&lt;br&gt;&lt;font face=&quot;Courier New&quot;&gt;None&lt;/font&gt;&lt;br&gt;&lt;br&gt;&lt;u&gt;Returns&lt;/u&gt;&lt;br&gt;&lt;font face=&quot;Courier New&quot;&gt;None&lt;/font&gt;&lt;/font&gt;&lt;br&gt;&lt;br&gt;&#39;Safely&#39; load data from disk for your model. Use class args (self.your_arg) to store these datas.&lt;br&gt;&lt;br&gt;For Server and SLURM_Server, asynchronously running models share the same disk. Hence, this function will only&amp;nbsp;&lt;i&gt;safely &lt;/i&gt;load the data using file locks." style="shape=partialRectangle;html=1;whiteSpace=wrap;connectable=0;fillColor=none;top=0;left=0;bottom=0;right=0;align=left;spacingLeft=6;overflow=hidden;strokeColor=inherit;fontSize=14;spacingRight=6;fontColor=#FFFFFF;" vertex="1" parent="sZFFOiMdw_IDjeqmHJVP-33">
          <mxGeometry x="250" width="308" height="290" as="geometry">
            <mxRectangle width="308" height="290" as="alternateBounds" />
          </mxGeometry>
        </mxCell>
        <mxCell id="sZFFOiMdw_IDjeqmHJVP-36" style="shape=tableRow;horizontal=0;startSize=0;swimlaneHead=0;swimlaneBody=0;top=0;left=0;bottom=0;right=0;collapsible=0;dropTarget=0;fillColor=none;points=[[0,0.5],[1,0.5]];portConstraint=eastwest;strokeColor=inherit;fontSize=16;fontColor=#FFFFFF;" vertex="1" parent="sZFFOiMdw_IDjeqmHJVP-29">
          <mxGeometry y="700" width="557.63" height="220" as="geometry" />
        </mxCell>
        <mxCell id="sZFFOiMdw_IDjeqmHJVP-37" value="Model.logger()" style="shape=partialRectangle;html=1;whiteSpace=wrap;connectable=0;fillColor=none;top=0;left=0;bottom=0;right=0;overflow=hidden;pointerEvents=1;strokeColor=inherit;fontSize=17;fontFamily=Courier New;fontColor=#FFFFFF;" vertex="1" parent="sZFFOiMdw_IDjeqmHJVP-36">
          <mxGeometry width="250" height="220" as="geometry">
            <mxRectangle width="250" height="220" as="alternateBounds" />
          </mxGeometry>
        </mxCell>
        <mxCell id="sZFFOiMdw_IDjeqmHJVP-38" value="&lt;u&gt;Inputs&lt;/u&gt;&lt;br&gt;&lt;font face=&quot;Courier New&quot;&gt;fitness: float, iteration: int&lt;br&gt;&lt;/font&gt;&lt;br&gt;&lt;u&gt;Returns&lt;/u&gt;&lt;br&gt;&lt;font face=&quot;Courier New&quot;&gt;dict&lt;/font&gt;&lt;br&gt;&lt;br&gt;Given just-tested fitness &amp;amp; iteration for logging. Override to add personal things to log. Logs stored in run_name/logs/model_i.log, where &#39;i&#39; is the id for the subprocess being logged." style="shape=partialRectangle;html=1;whiteSpace=wrap;connectable=0;fillColor=none;top=0;left=0;bottom=0;right=0;align=left;spacingLeft=6;overflow=hidden;strokeColor=inherit;fontSize=14;fontColor=#FFFFFF;" vertex="1" parent="sZFFOiMdw_IDjeqmHJVP-36">
          <mxGeometry x="250" width="308" height="220" as="geometry">
            <mxRectangle width="308" height="220" as="alternateBounds" />
          </mxGeometry>
        </mxCell>
        <mxCell id="sZFFOiMdw_IDjeqmHJVP-39" value="" style="group" vertex="1" connectable="0" parent="1">
          <mxGeometry x="1840" y="1040" width="580" height="1100" as="geometry" />
        </mxCell>
        <mxCell id="sZFFOiMdw_IDjeqmHJVP-40" value="" style="rounded=0;whiteSpace=wrap;html=1;fontColor=#FFFFFF;fillColor=none;strokeColor=#FFFFFF;" vertex="1" parent="sZFFOiMdw_IDjeqmHJVP-39">
          <mxGeometry width="560" height="1100" as="geometry" />
        </mxCell>
        <mxCell id="sZFFOiMdw_IDjeqmHJVP-41" value="&lt;h1&gt;&lt;font face=&quot;Courier New&quot;&gt;fetch_gene()&lt;/font&gt; from &lt;font face=&quot;Courier New&quot;&gt;Genetic_Algorithm&lt;/font&gt; class&lt;/h1&gt;&lt;p&gt;&lt;font style=&quot;font-size: 16px;&quot;&gt;Genetic_Algorithm is an optimizer provided with DGA. Here is the fetch_gene function from this class as an example for how to write your own:&lt;/font&gt;&lt;/p&gt;&lt;p&gt;&lt;br&gt;&lt;/p&gt;" style="text;html=1;strokeColor=none;fillColor=none;spacing=5;spacingTop=-20;whiteSpace=wrap;overflow=hidden;rounded=0;fontColor=#FFFFFF;" vertex="1" parent="sZFFOiMdw_IDjeqmHJVP-39">
          <mxGeometry x="20" y="30.56" width="520" height="139.44" as="geometry" />
        </mxCell>
        <mxCell id="sZFFOiMdw_IDjeqmHJVP-42" value="&lt;pre style=&quot;border-color: rgb(0, 0, 0); font-style: normal; font-variant-ligatures: normal; font-variant-caps: normal; font-weight: 400; letter-spacing: normal; orphans: 2; text-align: left; text-indent: 0px; text-transform: none; widows: 2; word-spacing: 0px; -webkit-text-stroke-width: 0px; text-decoration-thickness: initial; text-decoration-style: initial; text-decoration-color: initial; font-family: &amp;quot;JetBrains Mono&amp;quot;, monospace; font-size: 16px; line-height: 150%;&quot;&gt;&lt;span style=&quot;color: rgb(92, 99, 112); border-color: rgb(0, 0, 0); font-size: 16px;&quot;&gt;  &lt;/span&gt;&lt;span style=&quot;border-color: rgb(0, 0, 0); font-size: 16px;&quot;&gt;&lt;font color=&quot;#d55fde&quot;&gt;def&lt;/font&gt;&lt;/span&gt;&lt;span style=&quot;color: rgb(213, 95, 222); border-color: rgb(0, 0, 0); font-size: 16px;&quot;&gt; &lt;/span&gt;&lt;span style=&quot;color: rgb(97, 175, 239); border-color: rgb(0, 0, 0); font-size: 16px;&quot;&gt;fetch_gene&lt;/span&gt;&lt;font color=&quot;#bbbbbb&quot;&gt;(&lt;/font&gt;&lt;span style=&quot;color: rgb(213, 95, 222); border-color: rgb(0, 0, 0); font-size: 16px;&quot;&gt;self&lt;/span&gt;&lt;font color=&quot;#bbbbbb&quot;&gt;, &lt;/font&gt;&lt;span style=&quot;color: rgb(209, 154, 102); border-color: rgb(0, 0, 0); font-size: 16px;&quot;&gt;**kwargs&lt;/span&gt;&lt;font color=&quot;#bbbbbb&quot;&gt;) -&amp;gt; &lt;/font&gt;&lt;span style=&quot;color: rgb(43, 186, 197); border-color: rgb(0, 0, 0); font-size: 16px;&quot;&gt;tuple&lt;/span&gt;&lt;font color=&quot;#bbbbbb&quot;&gt;:&lt;br style=&quot;border-color: rgb(0, 0, 0); font-size: 16px;&quot;&gt;    &lt;/font&gt;&lt;span style=&quot;color: rgb(213, 95, 222); border-color: rgb(0, 0, 0); font-size: 16px;&quot;&gt;self&lt;/span&gt;&lt;font color=&quot;#bbbbbb&quot;&gt;.current_iter += &lt;/font&gt;&lt;span style=&quot;color: rgb(209, 154, 102); border-color: rgb(0, 0, 0); font-size: 16px;&quot;&gt;1    &lt;/span&gt;&lt;span style=&quot;color: rgb(92, 99, 112); border-color: rgb(0, 0, 0); font-size: 16px;&quot;&gt;# Increment iteration&lt;br style=&quot;border-color: rgb(0, 0, 0); font-size: 16px;&quot;&gt;&lt;/span&gt;&lt;span style=&quot;color: rgb(92, 99, 112); border-color: rgb(0, 0, 0); font-size: 16px;&quot;&gt;&lt;br style=&quot;border-color: rgb(0, 0, 0); font-size: 16px;&quot;&gt;&lt;/span&gt;&lt;span style=&quot;color: rgb(92, 99, 112); border-color: rgb(0, 0, 0); font-size: 16px;&quot;&gt;    # If pool is unitialized, add new gene&lt;br style=&quot;border-color: rgb(0, 0, 0); font-size: 16px;&quot;&gt;&lt;/span&gt;&lt;span style=&quot;color: rgb(92, 99, 112); border-color: rgb(0, 0, 0); font-size: 16px;&quot;&gt;    &lt;/span&gt;&lt;span style=&quot;color: rgb(213, 95, 222); border-color: rgb(0, 0, 0); font-size: 16px;&quot;&gt;if &lt;/span&gt;&lt;span style=&quot;color: rgb(43, 186, 197); border-color: rgb(0, 0, 0); font-size: 16px;&quot;&gt;len&lt;/span&gt;&lt;font color=&quot;#bbbbbb&quot;&gt;(&lt;/font&gt;&lt;span style=&quot;color: rgb(213, 95, 222); border-color: rgb(0, 0, 0); font-size: 16px;&quot;&gt;self&lt;/span&gt;&lt;font color=&quot;#bbbbbb&quot;&gt;.pool.&lt;/font&gt;&lt;span style=&quot;color: rgb(97, 175, 239); border-color: rgb(0, 0, 0); font-size: 16px;&quot;&gt;items&lt;/span&gt;&lt;font color=&quot;#bbbbbb&quot;&gt;()) &amp;lt; &lt;/font&gt;&lt;span style=&quot;color: rgb(213, 95, 222); border-color: rgb(0, 0, 0); font-size: 16px;&quot;&gt;self&lt;/span&gt;&lt;font color=&quot;#bbbbbb&quot;&gt;.num_genes:&lt;br style=&quot;border-color: rgb(0, 0, 0); font-size: 16px;&quot;&gt;      ...&lt;/font&gt;&lt;span style=&quot;color: rgb(213, 95, 222); border-color: rgb(0, 0, 0); font-size: 16px;&quot;&gt;&lt;br style=&quot;border-color: rgb(0, 0, 0); font-size: 16px;&quot;&gt;&lt;/span&gt;&lt;span style=&quot;color: rgb(213, 95, 222); border-color: rgb(0, 0, 0); font-size: 16px;&quot;&gt;&lt;br style=&quot;border-color: rgb(0, 0, 0); font-size: 16px;&quot;&gt;&lt;/span&gt;&lt;span style=&quot;color: rgb(213, 95, 222); border-color: rgb(0, 0, 0); font-size: 16px;&quot;&gt;    &lt;/span&gt;&lt;span style=&quot;color: rgb(92, 99, 112); border-color: rgb(0, 0, 0); font-size: 16px;&quot;&gt;# Need at least 2 genes in pool to create new gene&lt;br style=&quot;border-color: rgb(0, 0, 0); font-size: 16px;&quot;&gt;&lt;/span&gt;&lt;span style=&quot;color: rgb(92, 99, 112); border-color: rgb(0, 0, 0); font-size: 16px;&quot;&gt;    &lt;/span&gt;&lt;span style=&quot;color: rgb(213, 95, 222); border-color: rgb(0, 0, 0); font-size: 16px;&quot;&gt;elif &lt;/span&gt;&lt;span style=&quot;color: rgb(43, 186, 197); border-color: rgb(0, 0, 0); font-size: 16px;&quot;&gt;len&lt;/span&gt;&lt;font color=&quot;#bbbbbb&quot;&gt;(&lt;/font&gt;&lt;span style=&quot;color: rgb(213, 95, 222); border-color: rgb(0, 0, 0); font-size: 16px;&quot;&gt;self&lt;/span&gt;&lt;font color=&quot;#bbbbbb&quot;&gt;.valid_parents.&lt;/font&gt;&lt;span style=&quot;color: rgb(97, 175, 239); border-color: rgb(0, 0, 0); font-size: 16px;&quot;&gt;items&lt;/span&gt;&lt;font color=&quot;#bbbbbb&quot;&gt;()) &amp;lt; &lt;/font&gt;&lt;span style=&quot;color: rgb(209, 154, 102); border-color: rgb(0, 0, 0); font-size: 16px;&quot;&gt;2&lt;/span&gt;&lt;font color=&quot;#bbbbbb&quot;&gt;:&lt;br style=&quot;border-color: rgb(0, 0, 0); font-size: 16px;&quot;&gt;      ...&lt;br style=&quot;border-color: rgb(0, 0, 0); font-size: 16px;&quot;&gt;&lt;br style=&quot;border-color: rgb(0, 0, 0); font-size: 16px;&quot;&gt;&lt;/font&gt;&lt;span style=&quot;color: rgb(213, 95, 222); border-color: rgb(0, 0, 0); font-size: 16px;&quot;&gt;    &lt;/span&gt;&lt;span style=&quot;color: rgb(92, 99, 112); border-color: rgb(0, 0, 0); font-size: 16px;&quot;&gt;# Otherwise, create a new offspring&lt;br style=&quot;border-color: rgb(0, 0, 0); font-size: 16px;&quot;&gt;&lt;/span&gt;&lt;span style=&quot;color: rgb(92, 99, 112); border-color: rgb(0, 0, 0); font-size: 16px;&quot;&gt;    &lt;/span&gt;&lt;span style=&quot;color: rgb(213, 95, 222); border-color: rgb(0, 0, 0); font-size: 16px;&quot;&gt;else&lt;/span&gt;&lt;font color=&quot;#bbbbbb&quot;&gt;:&lt;br style=&quot;border-color: rgb(0, 0, 0); font-size: 16px;&quot;&gt;      ...&lt;/font&gt;&lt;/pre&gt;" style="text;whiteSpace=wrap;html=1;fontSize=16;" vertex="1" parent="sZFFOiMdw_IDjeqmHJVP-39">
          <mxGeometry x="20" y="180" width="490" height="370" as="geometry" />
        </mxCell>
        <mxCell id="sZFFOiMdw_IDjeqmHJVP-43" value="&lt;h1&gt;&lt;font face=&quot;Courier New&quot;&gt;create_new_gene()&lt;/font&gt; from&amp;nbsp;&lt;font face=&quot;Courier New&quot;&gt;Genetic_Algorithm&lt;/font&gt; class&lt;/h1&gt;&lt;p&gt;&lt;font style=&quot;font-size: 16px;&quot;&gt;Here is the create_new_gene function from the Genetic_Algorithm class as an example for how to use the different Algorithm functions to generate your own genes:&lt;/font&gt;&lt;/p&gt;&lt;p&gt;&lt;br&gt;&lt;/p&gt;" style="text;html=1;strokeColor=none;fillColor=none;spacing=5;spacingTop=-20;whiteSpace=wrap;overflow=hidden;rounded=0;fontColor=#FFFFFF;" vertex="1" parent="sZFFOiMdw_IDjeqmHJVP-39">
          <mxGeometry x="20" y="571.6666666666666" width="520" height="198.6111111111111" as="geometry" />
        </mxCell>
        <mxCell id="sZFFOiMdw_IDjeqmHJVP-44" value="&lt;div style=&quot;font-size: 16px;&quot;&gt;&lt;pre style=&quot;font-family: &amp;quot;JetBrains Mono&amp;quot;, monospace; font-size: 16px; line-height: 200%;&quot;&gt;&lt;div style=&quot;font-size: 16px;&quot;&gt;&lt;pre style=&quot;font-family: &amp;quot;JetBrains Mono&amp;quot;, monospace; font-size: 16px;&quot;&gt;&lt;font color=&quot;#d55fde&quot; style=&quot;font-size: 16px;&quot;&gt;def&lt;/font&gt;&lt;font color=&quot;#bbbbbb&quot; style=&quot;font-size: 16px;&quot;&gt; &lt;/font&gt;&lt;span style=&quot;color: rgb(97, 175, 239); font-size: 16px;&quot;&gt;create_new_gene&lt;/span&gt;&lt;font color=&quot;#bbbbbb&quot; style=&quot;font-size: 16px;&quot;&gt;(&lt;/font&gt;&lt;span style=&quot;color: rgb(209, 154, 102); font-size: 16px;&quot;&gt;self&lt;/span&gt;&lt;font color=&quot;#bbbbbb&quot; style=&quot;font-size: 16px;&quot;&gt;, &lt;/font&gt;&lt;span style=&quot;color: rgb(127, 133, 145); font-size: 16px;&quot;&gt;**kwargs&lt;/span&gt;&lt;font color=&quot;#bbbbbb&quot; style=&quot;font-size: 16px;&quot;&gt;):&lt;br style=&quot;font-size: 16px;&quot;&gt;  &lt;/font&gt;&lt;span style=&quot;color: rgb(92, 99, 112); font-size: 16px;&quot;&gt;# Parents of new gene&lt;br style=&quot;font-size: 16px;&quot;&gt;&lt;/span&gt;&lt;span style=&quot;color: rgb(92, 99, 112); font-size: 16px;&quot;&gt;  &lt;/span&gt;&lt;font color=&quot;#bbbbbb&quot; style=&quot;font-size: 16px;&quot;&gt;p1, p2 = &lt;/font&gt;&lt;span style=&quot;color: rgb(209, 154, 102); font-size: 16px;&quot;&gt;self&lt;/span&gt;&lt;font color=&quot;#bbbbbb&quot; style=&quot;font-size: 16px;&quot;&gt;.&lt;/font&gt;&lt;span style=&quot;color: rgb(97, 175, 239); font-size: 16px;&quot;&gt;select_parents&lt;/span&gt;&lt;font color=&quot;#bbbbbb&quot; style=&quot;font-size: 16px;&quot;&gt;()&lt;br style=&quot;font-size: 16px;&quot;&gt;&lt;br style=&quot;font-size: 16px;&quot;&gt;  &lt;/font&gt;&lt;span style=&quot;color: rgb(92, 99, 112); font-size: 16px;&quot;&gt;# New gene created&lt;br style=&quot;font-size: 16px;&quot;&gt;&lt;/span&gt;&lt;span style=&quot;color: rgb(92, 99, 112); font-size: 16px;&quot;&gt;  &lt;/span&gt;&lt;font color=&quot;#bbbbbb&quot; style=&quot;font-size: 16px;&quot;&gt;new_gene = &lt;/font&gt;&lt;span style=&quot;color: rgb(209, 154, 102); font-size: 16px;&quot;&gt;self&lt;/span&gt;&lt;font color=&quot;#bbbbbb&quot; style=&quot;font-size: 16px;&quot;&gt;.&lt;/font&gt;&lt;span style=&quot;color: rgb(97, 175, 239); font-size: 16px;&quot;&gt;crossover&lt;/span&gt;&lt;font color=&quot;#bbbbbb&quot; style=&quot;font-size: 16px;&quot;&gt;(p1, p2)&lt;br style=&quot;font-size: 16px;&quot;&gt;&lt;br style=&quot;font-size: 16px;&quot;&gt;  &lt;/font&gt;&lt;span style=&quot;color: rgb(92, 99, 112); font-size: 16px;&quot;&gt;# Apply mutations&lt;br style=&quot;font-size: 16px;&quot;&gt;&lt;/span&gt;&lt;span style=&quot;color: rgb(92, 99, 112); font-size: 16px;&quot;&gt;  &lt;/span&gt;&lt;font color=&quot;#bbbbbb&quot; style=&quot;font-size: 16px;&quot;&gt;new_gene = &lt;/font&gt;&lt;span style=&quot;color: rgb(209, 154, 102); font-size: 16px;&quot;&gt;self&lt;/span&gt;&lt;font color=&quot;#bbbbbb&quot; style=&quot;font-size: 16px;&quot;&gt;.&lt;/font&gt;&lt;span style=&quot;color: rgb(97, 175, 239); font-size: 16px;&quot;&gt;mutate&lt;/span&gt;&lt;font color=&quot;#bbbbbb&quot; style=&quot;font-size: 16px;&quot;&gt;(new_gene)  &lt;br style=&quot;font-size: 16px;&quot;&gt;  &lt;/font&gt;&lt;span style=&quot;color: rgb(213, 95, 222); font-size: 16px;&quot;&gt;return &lt;/span&gt;&lt;font color=&quot;#bbbbbb&quot; style=&quot;font-size: 16px;&quot;&gt;new_gene&lt;/font&gt;&lt;/pre&gt;&lt;/div&gt;&lt;/pre&gt;&lt;/div&gt;" style="text;whiteSpace=wrap;html=1;fontSize=16;" vertex="1" parent="sZFFOiMdw_IDjeqmHJVP-39">
          <mxGeometry x="40" y="720" width="490" height="390" as="geometry" />
        </mxCell>
        <mxCell id="npXq45TE0fB-MOn53cBX-1" value="" style="group;fontColor=#FFFFFF;" vertex="1" connectable="0" parent="1">
          <mxGeometry x="40" y="207" width="1759" height="1913" as="geometry" />
        </mxCell>
        <mxCell id="npXq45TE0fB-MOn53cBX-2" value="" style="endArrow=none;dashed=1;html=1;dashPattern=1 3;strokeWidth=3;rounded=0;opacity=30;strokeColor=#FFFFFF;" edge="1" parent="npXq45TE0fB-MOn53cBX-1">
          <mxGeometry width="50" height="50" relative="1" as="geometry">
            <mxPoint y="594.5034391904828" as="sourcePoint" />
            <mxPoint x="1680" y="594.5034391904828" as="targetPoint" />
          </mxGeometry>
        </mxCell>
        <mxCell id="npXq45TE0fB-MOn53cBX-3" value="" style="endArrow=none;dashed=1;html=1;dashPattern=1 3;strokeWidth=3;rounded=0;opacity=30;strokeColor=#FFFFFF;" edge="1" parent="npXq45TE0fB-MOn53cBX-1">
          <mxGeometry width="50" height="50" relative="1" as="geometry">
            <mxPoint y="1426.8082540571588" as="sourcePoint" />
            <mxPoint x="1680" y="1426.8082540571588" as="targetPoint" />
          </mxGeometry>
        </mxCell>
        <mxCell id="npXq45TE0fB-MOn53cBX-4" value="&lt;p style=&quot;line-height: 150%; font-size: 22px;&quot;&gt;&lt;/p&gt;&lt;h1 style=&quot;&quot;&gt;&lt;font style=&quot;font-size: 40px;&quot;&gt;Initialization&lt;/font&gt;&lt;/h1&gt;&lt;p style=&quot;line-height: 200%;&quot;&gt;&lt;font style=&quot;font-size: 24px;&quot;&gt;Repeatedly use Algorithm.initial_gene() to populate the gene pool (self.pool).&amp;nbsp;&lt;/font&gt;&lt;/p&gt;&lt;p style=&quot;font-size: 22px;&quot;&gt;&lt;/p&gt;" style="text;html=1;strokeColor=none;fillColor=none;spacing=5;spacingTop=-20;whiteSpace=wrap;overflow=hidden;rounded=0;fontSize=22;labelBackgroundColor=none;fontColor=#FFFFFF;" vertex="1" parent="npXq45TE0fB-MOn53cBX-1">
          <mxGeometry x="1160" y="265.54" width="542" height="317.07" as="geometry" />
        </mxCell>
        <mxCell id="npXq45TE0fB-MOn53cBX-5" value="&lt;h1 style=&quot;font-size: 40px;&quot;&gt;&lt;span style=&quot;&quot;&gt;&lt;font style=&quot;font-size: 40px;&quot;&gt;Asynchronous Main Loop&lt;/font&gt;&lt;/span&gt;&lt;/h1&gt;&lt;h1 style=&quot;line-height: 100%; font-size: 40px;&quot;&gt;&lt;span style=&quot;font-weight: normal; font-size: 24px;&quot;&gt;&lt;font style=&quot;font-size: 24px;&quot;&gt;Splitting into subprocess&#39;s is not shown. After &#39;Test Initial Genes&#39;, all subprocesses called to test genes will run in parallel. The loop is run for every subprocess. That is, each subprocess will run its own instance of this loop (generating and testing new genes), but all will update the &lt;i style=&quot;&quot;&gt;same&lt;/i&gt; genetic algorithm and state variables. State variables include things like gene pool, current iteration, current mutation rate (if using decay), etc.&amp;nbsp;&lt;/font&gt;&lt;/span&gt;&lt;/h1&gt;&lt;div style=&quot;line-height: 100%; font-size: 22px;&quot;&gt;&lt;br style=&quot;font-size: 22px;&quot;&gt;&lt;/div&gt;&lt;div style=&quot;line-height: 180%;&quot;&gt;&lt;font style=&quot;font-size: 24px;&quot;&gt;Implementable functions can be found in details to the right&amp;nbsp;&lt;/font&gt;&lt;/div&gt;" style="text;html=1;strokeColor=none;fillColor=none;spacing=5;spacingTop=-20;whiteSpace=wrap;overflow=hidden;rounded=0;fontSize=22;labelBackgroundColor=none;fontColor=#FFFFFF;" vertex="1" parent="npXq45TE0fB-MOn53cBX-1">
          <mxGeometry x="1160" y="679.82" width="551" height="648.14" as="geometry" />
        </mxCell>
        <mxCell id="npXq45TE0fB-MOn53cBX-6" value="&lt;h1 style=&quot;&quot;&gt;&lt;span style=&quot;&quot;&gt;&lt;font style=&quot;font-size: 40px;&quot;&gt;Ending&lt;/font&gt;&lt;/span&gt;&lt;/h1&gt;&lt;h1 style=&quot;line-height: 100%;&quot;&gt;&lt;span style=&quot;font-weight: 400;&quot;&gt;&lt;font style=&quot;font-size: 24px;&quot;&gt;After an end flag is sent, the server will wait for all running models to return before ending.&lt;/font&gt;&lt;/span&gt;&lt;/h1&gt;" style="text;html=1;strokeColor=none;fillColor=none;spacing=5;spacingTop=-20;whiteSpace=wrap;overflow=hidden;rounded=0;fontSize=22;labelBackgroundColor=none;fontColor=#FFFFFF;" vertex="1" parent="npXq45TE0fB-MOn53cBX-1">
          <mxGeometry x="1160" y="1511.88" width="542" height="257.61" as="geometry" />
        </mxCell>
        <mxCell id="npXq45TE0fB-MOn53cBX-7" value="" style="endArrow=none;html=1;strokeWidth=2;rounded=0;opacity=60;strokeColor=#FFFFFF;" edge="1" parent="npXq45TE0fB-MOn53cBX-1">
          <mxGeometry width="50" height="50" relative="1" as="geometry">
            <mxPoint x="405.9259259259259" y="1913" as="sourcePoint" />
            <mxPoint x="405.9259259259259" y="169.12324504125027" as="targetPoint" />
          </mxGeometry>
        </mxCell>
        <mxCell id="npXq45TE0fB-MOn53cBX-8" value="" style="endArrow=none;html=1;strokeWidth=2;rounded=0;opacity=60;strokeColor=#FFFFFF;" edge="1" parent="npXq45TE0fB-MOn53cBX-1">
          <mxGeometry width="50" height="50" relative="1" as="geometry">
            <mxPoint x="768.8888888888889" y="1913" as="sourcePoint" />
            <mxPoint x="768.8888888888889" y="169.12324504125027" as="targetPoint" />
          </mxGeometry>
        </mxCell>
        <mxCell id="npXq45TE0fB-MOn53cBX-9" value="&lt;font style=&quot;font-size: 45px;&quot;&gt;Server&lt;/font&gt;" style="text;html=1;strokeColor=none;fillColor=none;align=center;verticalAlign=middle;whiteSpace=wrap;rounded=0;fontStyle=0;fontSize=45;fontFamily=Times New Roman;fontColor=#FFFFFF;" vertex="1" parent="npXq45TE0fB-MOn53cBX-1">
          <mxGeometry x="496.66666666666674" width="181.48148148148147" height="178.35103175714485" as="geometry" />
        </mxCell>
        <mxCell id="npXq45TE0fB-MOn53cBX-10" value="&lt;font style=&quot;font-size: 45px;&quot;&gt;Algorithm&lt;/font&gt;" style="text;html=1;strokeColor=none;fillColor=none;align=center;verticalAlign=middle;whiteSpace=wrap;rounded=0;fontStyle=0;fontSize=45;fontFamily=Times New Roman;fontColor=#FFFFFF;" vertex="1" parent="npXq45TE0fB-MOn53cBX-1">
          <mxGeometry x="133.7037037037037" y="79.2671252253977" width="181.48148148148147" height="178.35103175714485" as="geometry" />
        </mxCell>
        <mxCell id="npXq45TE0fB-MOn53cBX-11" value="&lt;font style=&quot;font-size: 45px;&quot;&gt;Model&lt;/font&gt;" style="text;html=1;strokeColor=none;fillColor=none;align=center;verticalAlign=middle;whiteSpace=wrap;rounded=0;fontStyle=0;fontSize=45;fontFamily=Times New Roman;fontColor=#FFFFFF;" vertex="1" parent="npXq45TE0fB-MOn53cBX-1">
          <mxGeometry x="859.6296296296296" y="79.2671252253977" width="181.48148148148147" height="178.35103175714485" as="geometry" />
        </mxCell>
        <mxCell id="npXq45TE0fB-MOn53cBX-12" value="&lt;font style=&quot;font-size: 21px;&quot;&gt;&lt;b style=&quot;font-size: 21px;&quot;&gt;Begin&lt;/b&gt;&lt;/font&gt;" style="rounded=1;whiteSpace=wrap;html=1;fontSize=21;fontStyle=0;spacingRight=6;spacingLeft=6;fillColor=#2A2333;fontColor=#FFFFFF;strokeColor=#FFFFFF;" vertex="1" parent="npXq45TE0fB-MOn53cBX-1">
          <mxGeometry x="457.77777777777777" y="217.98459436984373" width="259.25925925925924" height="118.90068783809656" as="geometry" />
        </mxCell>
        <mxCell id="npXq45TE0fB-MOn53cBX-13" value="Initialize &lt;br&gt;Algorithm" style="rounded=1;whiteSpace=wrap;html=1;fontSize=18;fontStyle=2;spacingRight=6;spacingLeft=6;fillColor=#2A2333;fontColor=#FFFFFF;strokeColor=#FFFFFF;" vertex="1" parent="npXq45TE0fB-MOn53cBX-1">
          <mxGeometry x="509.62962962962956" y="416.15240743333794" width="155.55555555555554" height="118.90068783809656" as="geometry" />
        </mxCell>
        <mxCell id="npXq45TE0fB-MOn53cBX-14" style="edgeStyle=orthogonalEdgeStyle;rounded=0;orthogonalLoop=1;jettySize=auto;html=1;exitX=0.5;exitY=1;exitDx=0;exitDy=0;entryX=0.5;entryY=0;entryDx=0;entryDy=0;endSize=12;endArrow=classicThin;endFill=1;jumpSize=10;strokeColor=#FFFFFF;" edge="1" parent="npXq45TE0fB-MOn53cBX-1" source="npXq45TE0fB-MOn53cBX-12" target="npXq45TE0fB-MOn53cBX-13">
          <mxGeometry relative="1" as="geometry" />
        </mxCell>
        <mxCell id="npXq45TE0fB-MOn53cBX-15" value="&lt;font style=&quot;font-size: 13px;&quot;&gt;initial_gene()&lt;/font&gt;" style="shape=process;whiteSpace=wrap;html=1;backgroundOutline=1;fontFamily=Courier New;fontSize=15;size=0.061440844378989216;fontStyle=1;fillColor=#2A2333;rounded=1;fontColor=#FFFFFF;strokeColor=#FFFFFF;" vertex="1" parent="npXq45TE0fB-MOn53cBX-1">
          <mxGeometry x="145.37037037037038" y="416.15240743333794" width="155.55555555555554" height="118.90068783809656" as="geometry" />
        </mxCell>
        <mxCell id="npXq45TE0fB-MOn53cBX-16" style="edgeStyle=orthogonalEdgeStyle;rounded=0;orthogonalLoop=1;jettySize=auto;html=1;exitX=0;exitY=0.5;exitDx=0;exitDy=0;entryX=1;entryY=0.5;entryDx=0;entryDy=0;endSize=12;endArrow=classicThin;endFill=1;jumpSize=10;strokeColor=#FFFFFF;" edge="1" parent="npXq45TE0fB-MOn53cBX-1" source="npXq45TE0fB-MOn53cBX-13" target="npXq45TE0fB-MOn53cBX-15">
          <mxGeometry relative="1" as="geometry" />
        </mxCell>
        <mxCell id="npXq45TE0fB-MOn53cBX-17" value="Begin Run:&lt;br style=&quot;font-size: 17px;&quot;&gt;Start Subprocess&#39;s" style="rounded=1;whiteSpace=wrap;html=1;fontSize=17;fontStyle=2;spacingRight=6;spacingLeft=6;fillColor=#2A2333;fontColor=#FFFFFF;strokeColor=#FFFFFF;" vertex="1" parent="npXq45TE0fB-MOn53cBX-1">
          <mxGeometry x="509.62962962962956" y="673.7705644158806" width="155.55555555555554" height="118.90068783809656" as="geometry" />
        </mxCell>
        <mxCell id="npXq45TE0fB-MOn53cBX-18" style="edgeStyle=orthogonalEdgeStyle;rounded=0;orthogonalLoop=1;jettySize=auto;html=1;exitX=0.5;exitY=1;exitDx=0;exitDy=0;entryX=0;entryY=0.5;entryDx=0;entryDy=0;endSize=12;endArrow=classicThin;endFill=1;jumpSize=10;strokeColor=#FFFFFF;" edge="1" parent="npXq45TE0fB-MOn53cBX-1" source="npXq45TE0fB-MOn53cBX-15" target="npXq45TE0fB-MOn53cBX-17">
          <mxGeometry relative="1" as="geometry" />
        </mxCell>
        <mxCell id="npXq45TE0fB-MOn53cBX-19" value="Update Alg. &lt;br style=&quot;font-size: 18px;&quot;&gt;with Fitness" style="rounded=1;whiteSpace=wrap;html=1;fontSize=18;fontStyle=2;spacingRight=6;spacingLeft=6;fillColor=#2A2333;fontColor=#FFFFFF;strokeColor=#FFFFFF;" vertex="1" parent="npXq45TE0fB-MOn53cBX-1">
          <mxGeometry x="509.62962962962956" y="951.2055027047725" width="155.55555555555554" height="118.90068783809656" as="geometry" />
        </mxCell>
        <mxCell id="npXq45TE0fB-MOn53cBX-20" value="run()" style="shape=process;whiteSpace=wrap;html=1;backgroundOutline=1;fontFamily=Courier New;fontSize=20;size=0.06636259323006276;fontStyle=1;fillColor=#2A2333;rounded=1;fontColor=#FFFFFF;strokeColor=#FFFFFF;" vertex="1" parent="npXq45TE0fB-MOn53cBX-1">
          <mxGeometry x="872.5925925925926" y="673.7705644158806" width="155.55555555555554" height="118.90068783809656" as="geometry" />
        </mxCell>
        <mxCell id="npXq45TE0fB-MOn53cBX-21" style="edgeStyle=orthogonalEdgeStyle;rounded=0;orthogonalLoop=1;jettySize=auto;html=1;exitX=1;exitY=0.5;exitDx=0;exitDy=0;entryX=0;entryY=0.5;entryDx=0;entryDy=0;endSize=12;endArrow=classicThin;endFill=1;jumpSize=10;strokeColor=#FFFFFF;" edge="1" parent="npXq45TE0fB-MOn53cBX-1" source="npXq45TE0fB-MOn53cBX-17" target="npXq45TE0fB-MOn53cBX-20">
          <mxGeometry relative="1" as="geometry">
            <mxPoint x="1028.1481481481483" y="733.2209083349288" as="targetPoint" />
          </mxGeometry>
        </mxCell>
        <mxCell id="npXq45TE0fB-MOn53cBX-22" style="edgeStyle=orthogonalEdgeStyle;rounded=0;orthogonalLoop=1;jettySize=auto;html=1;exitX=0.5;exitY=1;exitDx=0;exitDy=0;entryX=1;entryY=0.5;entryDx=0;entryDy=0;endSize=8;endArrow=classicThin;endFill=1;jumpSize=10;strokeWidth=3;strokeColor=#FFFFFF;" edge="1" parent="npXq45TE0fB-MOn53cBX-1" source="npXq45TE0fB-MOn53cBX-20" target="npXq45TE0fB-MOn53cBX-19">
          <mxGeometry relative="1" as="geometry">
            <mxPoint x="1105.9259259259259" y="792.6712522539771" as="sourcePoint" />
            <Array as="points">
              <mxPoint x="950.3703703703703" y="1010.6558466238208" />
            </Array>
          </mxGeometry>
        </mxCell>
        <mxCell id="npXq45TE0fB-MOn53cBX-23" value="Fitness" style="edgeLabel;html=1;align=center;verticalAlign=middle;resizable=0;points=[];fontSize=22;fontStyle=0;fontColor=#FFFFFF;labelBackgroundColor=#211C29;" vertex="1" connectable="0" parent="npXq45TE0fB-MOn53cBX-22">
          <mxGeometry x="0.202" y="1" relative="1" as="geometry">
            <mxPoint x="-108" y="-22" as="offset" />
          </mxGeometry>
        </mxCell>
        <mxCell id="npXq45TE0fB-MOn53cBX-24" style="edgeStyle=orthogonalEdgeStyle;rounded=0;orthogonalLoop=1;jettySize=auto;html=1;exitX=1;exitY=0.5;exitDx=0;exitDy=0;entryX=1;entryY=0.5;entryDx=0;entryDy=0;endSize=8;endArrow=classicThin;endFill=1;jumpSize=10;strokeWidth=3;strokeColor=#FFFFFF;" edge="1" parent="npXq45TE0fB-MOn53cBX-1" source="npXq45TE0fB-MOn53cBX-26" target="npXq45TE0fB-MOn53cBX-20">
          <mxGeometry relative="1" as="geometry">
            <Array as="points">
              <mxPoint x="1080" y="1288.0907849127127" />
              <mxPoint x="1080" y="733.2209083349288" />
            </Array>
          </mxGeometry>
        </mxCell>
        <mxCell id="npXq45TE0fB-MOn53cBX-25" value="New Gene" style="edgeLabel;html=1;align=center;verticalAlign=middle;resizable=0;points=[];fontSize=22;fontStyle=0;fontColor=#FFFFFF;labelBackgroundColor=#211C29;" vertex="1" connectable="0" parent="npXq45TE0fB-MOn53cBX-24">
          <mxGeometry x="-0.651" y="-1" relative="1" as="geometry">
            <mxPoint x="13" y="-20" as="offset" />
          </mxGeometry>
        </mxCell>
        <mxCell id="npXq45TE0fB-MOn53cBX-26" value="Test New Gene" style="rounded=1;whiteSpace=wrap;html=1;fontSize=18;fontStyle=2;spacingRight=6;spacingLeft=6;fillColor=#2A2333;fontColor=#FFFFFF;strokeColor=#FFFFFF;" vertex="1" parent="npXq45TE0fB-MOn53cBX-1">
          <mxGeometry x="509.62962962962956" y="1228.6404409936647" width="155.55555555555554" height="118.90068783809656" as="geometry" />
        </mxCell>
        <mxCell id="npXq45TE0fB-MOn53cBX-27" style="edgeStyle=orthogonalEdgeStyle;rounded=0;orthogonalLoop=1;jettySize=auto;html=1;exitX=0.414;exitY=1.006;exitDx=0;exitDy=0;entryX=0.25;entryY=0;entryDx=0;entryDy=0;endSize=8;endArrow=classicThin;endFill=1;jumpSize=10;strokeWidth=3;exitPerimeter=0;strokeColor=#FFFFFF;" edge="1" parent="npXq45TE0fB-MOn53cBX-1">
          <mxGeometry relative="1" as="geometry">
            <mxPoint x="247.36296296296302" y="1070.819594669898" as="sourcePoint" />
            <mxPoint x="247.77777777777777" y="1228.6404409936647" as="targetPoint" />
          </mxGeometry>
        </mxCell>
        <mxCell id="npXq45TE0fB-MOn53cBX-28" value="False" style="edgeLabel;html=1;align=center;verticalAlign=middle;resizable=0;points=[];fontSize=17;fontColor=#FFFFFF;labelBackgroundColor=#211C29;" vertex="1" connectable="0" parent="npXq45TE0fB-MOn53cBX-27">
          <mxGeometry x="-0.4133" y="-3" relative="1" as="geometry">
            <mxPoint x="29" y="2" as="offset" />
          </mxGeometry>
        </mxCell>
        <mxCell id="npXq45TE0fB-MOn53cBX-29" value="&lt;font style=&quot;font-size: 12px;&quot;&gt;end_condition()&lt;/font&gt;" style="shape=process;whiteSpace=wrap;html=1;backgroundOutline=1;fontFamily=Courier New;fontSize=14;size=0.056142857142856877;fontStyle=1;fillColor=#2A2333;align=center;rounded=1;strokeColor=#FFFFFF;fontColor=#FFFFFF;" vertex="1" parent="npXq45TE0fB-MOn53cBX-1">
          <mxGeometry x="146.66666666666669" y="951.2055027047725" width="155.55555555555554" height="118.90068783809656" as="geometry" />
        </mxCell>
        <mxCell id="npXq45TE0fB-MOn53cBX-30" style="edgeStyle=orthogonalEdgeStyle;rounded=0;orthogonalLoop=1;jettySize=auto;html=1;exitX=0;exitY=0.5;exitDx=0;exitDy=0;entryX=1;entryY=0.5;entryDx=0;entryDy=0;endSize=8;endArrow=classicThin;endFill=1;jumpSize=10;strokeWidth=3;strokeColor=#FFFFFF;" edge="1" parent="npXq45TE0fB-MOn53cBX-1" source="npXq45TE0fB-MOn53cBX-19" target="npXq45TE0fB-MOn53cBX-29">
          <mxGeometry relative="1" as="geometry">
            <mxPoint x="289.25925925925924" y="1030.4726279301701" as="targetPoint" />
          </mxGeometry>
        </mxCell>
        <mxCell id="npXq45TE0fB-MOn53cBX-31" value="Fitness" style="edgeLabel;html=1;align=center;verticalAlign=middle;resizable=0;points=[];fontSize=22;fontStyle=0;fontColor=#FFFFFF;labelBackgroundColor=#211C29;" vertex="1" connectable="0" parent="npXq45TE0fB-MOn53cBX-30">
          <mxGeometry x="-0.402" y="1" relative="1" as="geometry">
            <mxPoint x="-58" y="-21" as="offset" />
          </mxGeometry>
        </mxCell>
        <mxCell id="npXq45TE0fB-MOn53cBX-32" style="edgeStyle=orthogonalEdgeStyle;rounded=0;orthogonalLoop=1;jettySize=auto;html=1;exitX=1;exitY=0.5;exitDx=0;exitDy=0;entryX=0;entryY=0.5;entryDx=0;entryDy=0;endSize=8;endArrow=classicThin;endFill=1;jumpSize=10;strokeWidth=3;strokeColor=#FFFFFF;" edge="1" parent="npXq45TE0fB-MOn53cBX-1" source="npXq45TE0fB-MOn53cBX-34" target="npXq45TE0fB-MOn53cBX-26">
          <mxGeometry relative="1" as="geometry" />
        </mxCell>
        <mxCell id="npXq45TE0fB-MOn53cBX-33" value="New Gene" style="edgeLabel;html=1;align=center;verticalAlign=middle;resizable=0;points=[];fontSize=22;labelBackgroundColor=#211C29;fontStyle=0;labelBorderColor=none;spacing=11;fontColor=#FFFFFF;" vertex="1" connectable="0" parent="npXq45TE0fB-MOn53cBX-32">
          <mxGeometry x="-0.15" relative="1" as="geometry">
            <mxPoint x="22" y="-19" as="offset" />
          </mxGeometry>
        </mxCell>
        <mxCell id="npXq45TE0fB-MOn53cBX-34" value="fetch_gene()" style="shape=process;whiteSpace=wrap;html=1;backgroundOutline=1;fontFamily=Courier New;fontSize=16;size=0.062027914614121576;fontStyle=1;fillColor=#2A2333;rounded=1;fontColor=#FFFFFF;strokeColor=#FFFFFF;" vertex="1" parent="npXq45TE0fB-MOn53cBX-1">
          <mxGeometry x="172.59259259259258" y="1228.6404409936647" width="155.55555555555554" height="118.90068783809656" as="geometry" />
        </mxCell>
        <mxCell id="npXq45TE0fB-MOn53cBX-35" value="Wait for all models to finish" style="rounded=1;whiteSpace=wrap;html=1;fontSize=18;fontStyle=2;spacingRight=6;spacingLeft=6;fillColor=#2A2333;fontColor=#FFFFFF;strokeColor=#FFFFFF;" vertex="1" parent="npXq45TE0fB-MOn53cBX-1">
          <mxGeometry x="509.62962962962956" y="1506.0753792825565" width="155.55555555555554" height="118.90068783809656" as="geometry" />
        </mxCell>
        <mxCell id="npXq45TE0fB-MOn53cBX-36" style="edgeStyle=orthogonalEdgeStyle;rounded=0;orthogonalLoop=1;jettySize=auto;html=1;exitX=0;exitY=0.5;exitDx=0;exitDy=0;entryX=0;entryY=0.5;entryDx=0;entryDy=0;strokeColor=#FFFFFF;" edge="1" parent="npXq45TE0fB-MOn53cBX-1" source="npXq45TE0fB-MOn53cBX-29" target="npXq45TE0fB-MOn53cBX-35">
          <mxGeometry relative="1" as="geometry">
            <Array as="points">
              <mxPoint x="120.74074074074073" y="1010.6558466238208" />
              <mxPoint x="120.74074074074073" y="1565.5257232016047" />
            </Array>
          </mxGeometry>
        </mxCell>
        <mxCell id="npXq45TE0fB-MOn53cBX-37" value="True" style="edgeLabel;html=1;align=center;verticalAlign=middle;resizable=0;points=[];fontSize=17;fontColor=#FFFFFF;labelBackgroundColor=#211C29;" vertex="1" connectable="0" parent="npXq45TE0fB-MOn53cBX-36">
          <mxGeometry x="-0.8753" y="-2" relative="1" as="geometry">
            <mxPoint x="-22" y="73" as="offset" />
          </mxGeometry>
        </mxCell>
        <mxCell id="npXq45TE0fB-MOn53cBX-38" value="&lt;font style=&quot;font-size: 21px;&quot;&gt;&lt;b style=&quot;font-size: 21px;&quot;&gt;End&lt;/b&gt;&lt;/font&gt;" style="rounded=1;whiteSpace=wrap;html=1;fontSize=21;fontStyle=0;spacingRight=6;spacingLeft=6;fillColor=#2A2333;fontColor=#FFFFFF;strokeColor=#FFFFFF;" vertex="1" parent="npXq45TE0fB-MOn53cBX-1">
          <mxGeometry x="457.77777777777777" y="1724.0599736524" width="259.25925925925924" height="118.90068783809656" as="geometry" />
        </mxCell>
        <mxCell id="npXq45TE0fB-MOn53cBX-39" style="edgeStyle=orthogonalEdgeStyle;rounded=0;orthogonalLoop=1;jettySize=auto;html=1;exitX=0.5;exitY=1;exitDx=0;exitDy=0;entryX=0.5;entryY=0;entryDx=0;entryDy=0;endSize=12;endArrow=classicThin;endFill=1;jumpSize=10;strokeColor=#FFFFFF;" edge="1" parent="npXq45TE0fB-MOn53cBX-1" source="npXq45TE0fB-MOn53cBX-35" target="npXq45TE0fB-MOn53cBX-38">
          <mxGeometry relative="1" as="geometry">
            <mxPoint x="587.1351851851852" y="1624.9760671206532" as="sourcePoint" />
            <mxPoint x="587.1351851851852" y="1704.2431923460508" as="targetPoint" />
          </mxGeometry>
        </mxCell>
        <mxCell id="npXq45TE0fB-MOn53cBX-40" value="" style="rounded=0;whiteSpace=wrap;html=1;fillColor=#392F45;strokeWidth=2;strokeColor=#999999;fontColor=#FFFFFF;" vertex="1" parent="npXq45TE0fB-MOn53cBX-1">
          <mxGeometry x="48" y="1629.699493380406" width="305.15" height="250.57514077669902" as="geometry" />
        </mxCell>
        <mxCell id="npXq45TE0fB-MOn53cBX-41" value="" style="shape=process;whiteSpace=wrap;html=1;backgroundOutline=1;rounded=1;fillColor=#2A2333;strokeColor=#FFFFFF;" vertex="1" parent="npXq45TE0fB-MOn53cBX-1">
          <mxGeometry x="67.90108695652174" y="1649.7455046425418" width="126.04021739130434" height="80.18404504854368" as="geometry" />
        </mxCell>
        <mxCell id="npXq45TE0fB-MOn53cBX-42" value="" style="rounded=1;whiteSpace=wrap;html=1;fillColor=#2A2333;strokeColor=#FFFFFF;" vertex="1" parent="npXq45TE0fB-MOn53cBX-1">
          <mxGeometry x="67.90108695652174" y="1780.0445778464255" width="126.04021739130434" height="83.52504692556634" as="geometry" />
        </mxCell>
        <mxCell id="npXq45TE0fB-MOn53cBX-43" value="Implementable&lt;br style=&quot;font-size: 18px;&quot;&gt;Function" style="text;html=1;strokeColor=none;fillColor=none;align=center;verticalAlign=middle;whiteSpace=wrap;rounded=0;fontSize=18;fontColor=#FFFFFF;" vertex="1" parent="npXq45TE0fB-MOn53cBX-1">
          <mxGeometry x="220.4760869565217" y="1648.0750037040307" width="119.40652173913044" height="83.52504692556634" as="geometry" />
        </mxCell>
        <mxCell id="npXq45TE0fB-MOn53cBX-44" value="Backend Work" style="text;html=1;strokeColor=none;fillColor=none;align=center;verticalAlign=middle;whiteSpace=wrap;rounded=0;fontSize=18;fontColor=#FFFFFF;" vertex="1" parent="npXq45TE0fB-MOn53cBX-1">
          <mxGeometry x="220.4760869565217" y="1780.0445778464255" width="119.40652173913044" height="83.52504692556634" as="geometry" />
        </mxCell>
        <mxCell id="npXq45TE0fB-MOn53cBX-45" value="&lt;font style=&quot;font-size: 105px;&quot; face=&quot;Helvetica&quot;&gt;DGA Runtime Flowchart&lt;/font&gt;" style="text;html=1;strokeColor=none;fillColor=none;align=center;verticalAlign=middle;whiteSpace=wrap;rounded=0;fontStyle=1;fontColor=#FFFFFF;" vertex="1" parent="1">
          <mxGeometry x="98" y="16" width="1639" height="230" as="geometry" />
        </mxCell>
        <mxCell id="npXq45TE0fB-MOn53cBX-46" value="" style="endArrow=none;html=1;rounded=0;exitX=0;exitY=0.75;exitDx=0;exitDy=0;entryX=1;entryY=0.75;entryDx=0;entryDy=0;strokeWidth=4;strokeColor=#FFFFFF;" edge="1" parent="1">
          <mxGeometry width="50" height="50" relative="1" as="geometry">
            <mxPoint x="98" y="188" as="sourcePoint" />
            <mxPoint x="1737" y="189" as="targetPoint" />
          </mxGeometry>
        </mxCell>
      </root>
    </mxGraphModel>
  </diagram>
  <diagram id="mLjISx81uISVsv__1UCN" name="Page-2">
    <mxGraphModel dx="947" dy="2409" grid="0" gridSize="10" guides="1" tooltips="1" connect="1" arrows="1" fold="1" page="1" pageScale="1" pageWidth="3150" pageHeight="2200" background="#211C29" math="0" shadow="0">
      <root>
        <mxCell id="0" />
        <mxCell id="1" parent="0" />
        <mxCell id="GRkVJgraT-jmx8AGfbfF-1" value="DGA.Server" style="shape=table;startSize=52;container=1;collapsible=0;childLayout=tableLayout;fixedRows=1;rowLines=0;fontStyle=0;strokeColor=#FFFFFF;fontSize=28;fontFamily=Courier New;fillColor=none;fontColor=#FFFFFF;" vertex="1" parent="1">
          <mxGeometry x="3280" y="500" width="1260" height="400" as="geometry" />
        </mxCell>
        <mxCell id="GRkVJgraT-jmx8AGfbfF-2" value="" style="shape=tableRow;horizontal=0;startSize=0;swimlaneHead=0;swimlaneBody=0;top=0;left=0;bottom=0;right=0;collapsible=0;dropTarget=0;fillColor=none;points=[[0,0.5],[1,0.5]];portConstraint=eastwest;strokeColor=#FFFFFF;fontSize=16;" vertex="1" parent="GRkVJgraT-jmx8AGfbfF-1">
          <mxGeometry y="52" width="1260" height="348" as="geometry" />
        </mxCell>
        <mxCell id="GRkVJgraT-jmx8AGfbfF-3" value="Server()" style="shape=partialRectangle;html=1;whiteSpace=wrap;connectable=0;fillColor=none;top=0;left=0;bottom=0;right=0;overflow=hidden;pointerEvents=1;strokeColor=#FFFFFF;fontSize=17;fontFamily=Courier New;fontColor=#FFFFFF;" vertex="1" parent="GRkVJgraT-jmx8AGfbfF-2">
          <mxGeometry width="250" height="348" as="geometry">
            <mxRectangle width="250" height="348" as="alternateBounds" />
          </mxGeometry>
        </mxCell>
        <mxCell id="GRkVJgraT-jmx8AGfbfF-4" value="&lt;font style=&quot;&quot; face=&quot;Helvetica&quot;&gt;&lt;b style=&quot;text-decoration-line: underline;&quot;&gt;Description&lt;/b&gt;&lt;br&gt;&lt;br&gt;This is a basic &#39;server&#39;, which manages the asynchronous subprocess&#39;s and state of the algorithm. This will run the optimizer (algorithm) on the given model, utilizing cores on the CPU for each subprocess.&amp;nbsp;&lt;br&gt;&lt;br&gt;Intended more as a base class to define &#39;Server&#39; behavior.&lt;br&gt;&lt;/font&gt;" style="shape=partialRectangle;html=1;whiteSpace=wrap;connectable=0;fillColor=none;top=0;left=0;bottom=0;right=0;overflow=hidden;pointerEvents=1;strokeColor=#FFFFFF;fontSize=17;fontFamily=Courier New;align=left;verticalAlign=top;spacingTop=6;spacingLeft=12;spacingRight=12;fontColor=#FFFFFF;" vertex="1" parent="GRkVJgraT-jmx8AGfbfF-2">
          <mxGeometry x="250" width="250" height="348" as="geometry">
            <mxRectangle width="250" height="348" as="alternateBounds" />
          </mxGeometry>
        </mxCell>
        <mxCell id="GRkVJgraT-jmx8AGfbfF-5" value="&lt;font style=&quot;font-size: 17px;&quot;&gt;&lt;b&gt;&lt;u&gt;Arguments&lt;/u&gt;&lt;/b&gt;&lt;br&gt;&lt;/font&gt;&lt;br&gt;&lt;font face=&quot;Courier New&quot;&gt;run_name&lt;/font&gt;: &lt;font face=&quot;Courier New&quot;&gt;str&lt;br&gt;&lt;/font&gt;Used to name directory with run info&lt;br&gt;&lt;br&gt;&lt;font face=&quot;Courier New&quot;&gt;algorithm&lt;/font&gt;: &lt;font face=&quot;Courier New&quot;&gt;Algorithm&lt;br&gt;&lt;/font&gt;Used for optimizing&lt;br&gt;&lt;br&gt;&lt;font face=&quot;Courier New&quot;&gt;model&lt;/font&gt;: &lt;font face=&quot;Courier New&quot;&gt;Model&lt;br&gt;&lt;/font&gt;Contains model to be optimized&lt;br&gt;&lt;br&gt;&lt;font face=&quot;Courier New&quot;&gt;num_parallel_processes&lt;/font&gt;: &lt;font face=&quot;Courier New&quot;&gt;int&lt;br&gt;&lt;/font&gt;Number of parallel processes to call during testing" style="shape=partialRectangle;html=1;whiteSpace=wrap;connectable=0;fillColor=none;top=0;left=0;bottom=0;right=0;align=left;spacingLeft=12;overflow=hidden;strokeColor=#FFFFFF;fontSize=14;verticalAlign=top;spacingTop=6;fontColor=#FFFFFF;" vertex="1" parent="GRkVJgraT-jmx8AGfbfF-2">
          <mxGeometry x="500" width="350" height="348" as="geometry">
            <mxRectangle width="350" height="348" as="alternateBounds" />
          </mxGeometry>
        </mxCell>
        <mxCell id="GRkVJgraT-jmx8AGfbfF-6" value="&lt;font color=&quot;#ffffff&quot;&gt;&lt;b&gt;&lt;font style=&quot;font-size: 17px;&quot;&gt;Example Usage:&lt;/font&gt;&lt;/b&gt;&lt;br&gt;&lt;/font&gt;&lt;br&gt;&lt;pre style=&quot;color: rgb(187, 187, 187); font-family: &amp;quot;JetBrains Mono&amp;quot;, monospace; font-size: 18px;&quot;&gt;Server(&lt;span style=&quot;color: rgb(209, 154, 102);&quot;&gt;run_name&lt;/span&gt;=&lt;span style=&quot;color: rgb(137, 202, 120);&quot;&gt;&quot;My_Run&quot;&lt;/span&gt;,   &lt;br&gt;       &lt;span style=&quot;color: rgb(209, 154, 102);&quot;&gt;algorithm&lt;/span&gt;=&lt;span style=&quot;color: rgb(97, 175, 239);&quot;&gt;My_Alg&lt;/span&gt;(...),&lt;br&gt;       &lt;span style=&quot;color: rgb(209, 154, 102);&quot;&gt;model&lt;/span&gt;=&lt;span style=&quot;color: rgb(97, 175, 239);&quot;&gt;My_Model&lt;/span&gt;(...),&lt;br&gt;       &lt;span style=&quot;color: rgb(209, 154, 102);&quot;&gt;num_parallel_processes&lt;/span&gt;=&lt;span style=&quot;color: rgb(209, 154, 102);&quot;&gt;5&lt;/span&gt;,)&lt;/pre&gt;&lt;pre style=&quot;color: rgb(187, 187, 187); font-family: &amp;quot;JetBrains Mono&amp;quot;, monospace; font-size: 18px;&quot;&gt;&lt;br&gt;&lt;/pre&gt;&lt;pre style=&quot;color: rgb(187, 187, 187); font-size: 18px;&quot;&gt;&lt;font face=&quot;Helvetica&quot;&gt;Full script using this object:&lt;/font&gt;&lt;/pre&gt;&lt;pre style=&quot;color: rgb(187, 187, 187); font-size: 18px;&quot;&gt;&lt;font style=&quot;background-color: initial;&quot; face=&quot;Helvetica&quot;&gt;/&lt;/font&gt;&lt;font style=&quot;background-color: initial; white-space: normal;&quot; face=&quot;Helvetica&quot;&gt;scripts/GA_examples/Simple_GA_Example.py&lt;/font&gt;&lt;span style=&quot;background-color: initial; white-space: normal; font-family: &amp;quot;JetBrains Mono&amp;quot;, monospace;&quot;&gt;&lt;/span&gt;&lt;/pre&gt;" style="shape=partialRectangle;html=1;whiteSpace=wrap;connectable=0;fillColor=none;top=0;left=0;bottom=0;right=0;align=left;spacingLeft=12;overflow=hidden;strokeColor=#FFFFFF;fontSize=14;verticalAlign=top;spacingTop=6;" vertex="1" parent="GRkVJgraT-jmx8AGfbfF-2">
          <mxGeometry x="850" width="410" height="348" as="geometry">
            <mxRectangle width="410" height="348" as="alternateBounds" />
          </mxGeometry>
        </mxCell>
        <mxCell id="GRkVJgraT-jmx8AGfbfF-7" value="DGA.SLURM_Server" style="shape=table;startSize=52;container=1;collapsible=0;childLayout=tableLayout;fixedRows=1;rowLines=0;fontStyle=0;strokeColor=#FFFFFF;fontSize=28;fontFamily=Courier New;fillColor=none;fontColor=#FFFFFF;" vertex="1" parent="1">
          <mxGeometry x="3280" y="60" width="1260" height="400" as="geometry" />
        </mxCell>
        <mxCell id="GRkVJgraT-jmx8AGfbfF-8" value="" style="shape=tableRow;horizontal=0;startSize=0;swimlaneHead=0;swimlaneBody=0;top=0;left=0;bottom=0;right=0;collapsible=0;dropTarget=0;fillColor=none;points=[[0,0.5],[1,0.5]];portConstraint=eastwest;strokeColor=#FFFFFF;fontSize=16;" vertex="1" parent="GRkVJgraT-jmx8AGfbfF-7">
          <mxGeometry y="52" width="1260" height="348" as="geometry" />
        </mxCell>
        <mxCell id="GRkVJgraT-jmx8AGfbfF-9" value="Server_SLURM()" style="shape=partialRectangle;html=1;whiteSpace=wrap;connectable=0;fillColor=none;top=0;left=0;bottom=0;right=0;overflow=hidden;pointerEvents=1;strokeColor=#FFFFFF;fontSize=17;fontFamily=Courier New;fontColor=#FFFFFF;" vertex="1" parent="GRkVJgraT-jmx8AGfbfF-8">
          <mxGeometry width="250" height="348" as="geometry">
            <mxRectangle width="250" height="348" as="alternateBounds" />
          </mxGeometry>
        </mxCell>
        <mxCell id="GRkVJgraT-jmx8AGfbfF-10" value="&lt;font style=&quot;&quot; face=&quot;Helvetica&quot;&gt;&lt;u style=&quot;font-weight: bold;&quot;&gt;Description&lt;/u&gt;&lt;br&gt;&lt;br&gt;This is a server object intended to run on a SLURM system. It operates exactly like the basic server, except it will queue nodes using a provided sbatch script to test models.&lt;br&gt;&lt;/font&gt;" style="shape=partialRectangle;html=1;whiteSpace=wrap;connectable=0;fillColor=none;top=0;left=0;bottom=0;right=0;overflow=hidden;pointerEvents=1;strokeColor=#FFFFFF;fontSize=17;fontFamily=Courier New;align=left;verticalAlign=top;spacingTop=6;spacingLeft=12;spacingRight=12;fontColor=#FFFFFF;" vertex="1" parent="GRkVJgraT-jmx8AGfbfF-8">
          <mxGeometry x="250" width="250" height="348" as="geometry">
            <mxRectangle width="250" height="348" as="alternateBounds" />
          </mxGeometry>
        </mxCell>
        <mxCell id="GRkVJgraT-jmx8AGfbfF-11" value="&lt;u&gt;&lt;b&gt;&lt;font style=&quot;font-size: 17px;&quot;&gt;Arguments&lt;/font&gt;&lt;br&gt;&lt;/b&gt;&lt;/u&gt;&lt;br&gt;&lt;font face=&quot;Courier New&quot;&gt;run_name&lt;/font&gt;:&amp;nbsp;&lt;font face=&quot;Courier New&quot;&gt;str&lt;br&gt;&lt;/font&gt;Used to name directory with run info&lt;br&gt;&lt;br&gt;&lt;font face=&quot;Courier New&quot;&gt;algorithm&lt;/font&gt;:&amp;nbsp;&lt;font face=&quot;Courier New&quot;&gt;Algorithm&lt;br&gt;&lt;/font&gt;Used for optimizing&lt;br&gt;&lt;br&gt;&lt;font face=&quot;Courier New&quot;&gt;model&lt;/font&gt;:&amp;nbsp;&lt;font face=&quot;Courier New&quot;&gt;Model&lt;br&gt;&lt;/font&gt;Contains model to be optimized&lt;br&gt;&lt;br&gt;&lt;font face=&quot;Courier New&quot;&gt;num_parallel_processes&lt;/font&gt;:&amp;nbsp;&lt;font face=&quot;Courier New&quot;&gt;int&lt;br&gt;&lt;/font&gt;Number of parallel processes to call during testing&lt;br&gt;&lt;br&gt;&lt;font face=&quot;Courier New&quot;&gt;sbatch_script&lt;/font&gt;: &lt;font face=&quot;Courier New&quot;&gt;str&lt;br&gt;&lt;/font&gt;Path to SLURM sbatch script that will deploy your model" style="shape=partialRectangle;html=1;whiteSpace=wrap;connectable=0;fillColor=none;top=0;left=0;bottom=0;right=0;align=left;spacingLeft=13;overflow=hidden;strokeColor=#FFFFFF;fontSize=14;verticalAlign=top;spacingTop=6;fontColor=#FFFFFF;" vertex="1" parent="GRkVJgraT-jmx8AGfbfF-8">
          <mxGeometry x="500" width="350" height="348" as="geometry">
            <mxRectangle width="350" height="348" as="alternateBounds" />
          </mxGeometry>
        </mxCell>
        <mxCell id="GRkVJgraT-jmx8AGfbfF-12" value="&lt;font color=&quot;#ffffff&quot;&gt;&lt;b&gt;&lt;font style=&quot;font-size: 17px;&quot;&gt;Example Usage:&lt;/font&gt;&lt;/b&gt;&lt;br&gt;&lt;/font&gt;&lt;br&gt;&lt;pre style=&quot;color: rgb(187, 187, 187); font-family: &amp;quot;JetBrains Mono&amp;quot;, monospace; font-size: 18px;&quot;&gt;&lt;span style=&quot;font-size: 10.5pt; background-color: initial;&quot;&gt;&lt;/span&gt;&lt;pre style=&quot;font-family: &amp;quot;JetBrains Mono&amp;quot;, monospace;&quot;&gt;Server_SLURM(&lt;br&gt;  &lt;span style=&quot;color: rgb(209, 154, 102);&quot;&gt;run_name&lt;/span&gt;=&lt;span style=&quot;color: rgb(137, 202, 120);&quot;&gt;&quot;My_SLURM_run&quot;&lt;/span&gt;,&lt;br&gt;  &lt;span style=&quot;color: rgb(209, 154, 102);&quot;&gt;algorithm&lt;/span&gt;=&lt;span style=&quot;color: rgb(97, 175, 239);&quot;&gt;My_Algorithm&lt;/span&gt;(...),&lt;br&gt;  &lt;span style=&quot;color: rgb(209, 154, 102);&quot;&gt;model&lt;/span&gt;=&lt;span style=&quot;color: rgb(97, 175, 239);&quot;&gt;My_Model&lt;/span&gt;(...),&lt;br&gt;  &lt;span style=&quot;color: rgb(209, 154, 102);&quot;&gt;sbatch_script&lt;/span&gt;=&lt;span style=&quot;color: rgb(137, 202, 120);&quot;&gt;&quot;sbatch_script.sh&quot;&lt;/span&gt;,&lt;br&gt;  &lt;span style=&quot;color: rgb(209, 154, 102);&quot;&gt;num_parallel_processes&lt;/span&gt;=&lt;span style=&quot;color: rgb(209, 154, 102);&quot;&gt;5&lt;/span&gt;,&lt;br&gt;)&lt;/pre&gt;&lt;pre style=&quot;font-family: &amp;quot;JetBrains Mono&amp;quot;, monospace;&quot;&gt;&lt;br&gt;&lt;/pre&gt;&lt;pre style=&quot;font-family: &amp;quot;JetBrains Mono&amp;quot;, monospace;&quot;&gt;&lt;pre&gt;&lt;font face=&quot;Helvetica&quot;&gt;Full script using this object:&lt;/font&gt;&lt;/pre&gt;&lt;pre&gt;&lt;font style=&quot;background-color: initial;&quot; face=&quot;Helvetica&quot;&gt;/&lt;/font&gt;&lt;font style=&quot;background-color: initial;&quot; face=&quot;Helvetica&quot;&gt;scripts/SLURM_examples/SLURM_GA...ple.py&lt;/font&gt;&lt;/pre&gt;&lt;/pre&gt;&lt;/pre&gt;" style="shape=partialRectangle;html=1;whiteSpace=wrap;connectable=0;fillColor=none;top=0;left=0;bottom=0;right=0;align=left;spacingLeft=12;overflow=hidden;strokeColor=#FFFFFF;fontSize=14;verticalAlign=top;spacingTop=6;" vertex="1" parent="GRkVJgraT-jmx8AGfbfF-8">
          <mxGeometry x="850" width="410" height="348" as="geometry">
            <mxRectangle width="410" height="348" as="alternateBounds" />
          </mxGeometry>
        </mxCell>
        <mxCell id="GRkVJgraT-jmx8AGfbfF-13" value="DGA.Plateau_Genetic_Algorithm" style="shape=table;startSize=52;container=1;collapsible=0;childLayout=tableLayout;fixedRows=1;rowLines=0;fontStyle=0;strokeColor=#FFFFFF;fontSize=28;fontFamily=Courier New;fillColor=none;fontColor=#FFFFFF;" vertex="1" parent="1">
          <mxGeometry x="3280" y="1460" width="1590" height="690" as="geometry" />
        </mxCell>
        <mxCell id="GRkVJgraT-jmx8AGfbfF-14" value="" style="shape=tableRow;horizontal=0;startSize=0;swimlaneHead=0;swimlaneBody=0;top=0;left=0;bottom=0;right=0;collapsible=0;dropTarget=0;fillColor=none;points=[[0,0.5],[1,0.5]];portConstraint=eastwest;strokeColor=#FFFFFF;fontSize=16;" vertex="1" parent="GRkVJgraT-jmx8AGfbfF-13">
          <mxGeometry y="52" width="1590" height="638" as="geometry" />
        </mxCell>
        <mxCell id="GRkVJgraT-jmx8AGfbfF-15" value="Genetic_Algorithm()" style="shape=partialRectangle;html=1;whiteSpace=wrap;connectable=0;fillColor=none;top=0;left=0;bottom=0;right=0;overflow=hidden;pointerEvents=1;strokeColor=#FFFFFF;fontSize=17;fontFamily=Courier New;fontColor=#FFFFFF;" vertex="1" parent="GRkVJgraT-jmx8AGfbfF-14">
          <mxGeometry width="240" height="638" as="geometry">
            <mxRectangle width="240" height="638" as="alternateBounds" />
          </mxGeometry>
        </mxCell>
        <mxCell id="GRkVJgraT-jmx8AGfbfF-16" value="&lt;font style=&quot;font-size: 17px;&quot; face=&quot;Helvetica&quot;&gt;&lt;b&gt;&lt;u&gt;Description&lt;br&gt;&lt;br&gt;&lt;/u&gt;&lt;/b&gt;The intent with this algorithm is to search until the tested genes are no longer improving. This is done by looking for a &#39;plateau&#39; in the learning curve (details below). When a plateau is detected, it&#39;s assumed a local minima in the parameter space has been reached. The algorithm then does the following:&lt;br style=&quot;&quot;&gt;&lt;br style=&quot;&quot;&gt;&lt;b style=&quot;&quot;&gt;On Plateau Detection:&lt;br&gt;&lt;/b&gt;&lt;span style=&quot;&quot;&gt;1. Top performing gene added to &#39;founders pool&#39;&lt;/span&gt;&lt;br style=&quot;&quot;&gt;&lt;span style=&quot;&quot;&gt;2. Reset pool (New random genes)&lt;/span&gt;&lt;br style=&quot;&quot;&gt;&lt;br style=&quot;&quot;&gt;&lt;span style=&quot;&quot;&gt;To evaluate if a &#39;plateau&#39; is reached, the most recently tested plateau_sample_size models are retrieved and plotted in the order they were tested. A line is regressed over these points, and if the regression coefficient is small enough (aka, line is flat enough), a plateau is detected.&amp;nbsp;&lt;/span&gt;&lt;b&gt;&lt;u&gt;&lt;br&gt;&lt;/u&gt;&lt;/b&gt;&lt;/font&gt;" style="shape=partialRectangle;html=1;whiteSpace=wrap;connectable=0;fillColor=none;top=0;left=0;bottom=0;right=0;overflow=hidden;pointerEvents=1;strokeColor=#FFFFFF;fontSize=17;fontFamily=Courier New;verticalAlign=top;align=left;spacingTop=6;spacingLeft=12;spacingRight=12;fontColor=#FFFFFF;" vertex="1" parent="GRkVJgraT-jmx8AGfbfF-14">
          <mxGeometry x="240" width="470" height="638" as="geometry">
            <mxRectangle width="470" height="638" as="alternateBounds" />
          </mxGeometry>
        </mxCell>
        <mxCell id="GRkVJgraT-jmx8AGfbfF-17" value="&lt;font style=&quot;font-size: 17px;&quot;&gt;&lt;b&gt;&lt;u&gt;Arguments&lt;/u&gt;&lt;/b&gt;&lt;br&gt;&lt;/font&gt;&lt;br&gt;&lt;font style=&quot;font-size: 17px;&quot;&gt;&lt;font style=&quot;font-size: 17px;&quot; face=&quot;Courier New&quot;&gt;gene_shape&lt;/font&gt;: &lt;font style=&quot;font-size: 17px;&quot; face=&quot;Courier New&quot;&gt;tuple&lt;br&gt;&lt;/font&gt;Shape of gene (assumed genes are array-like)&lt;br&gt;&lt;br&gt;&lt;font style=&quot;font-size: 17px;&quot; face=&quot;Courier New&quot;&gt;num_genes&lt;/font&gt;: &lt;font style=&quot;font-size: 17px;&quot; face=&quot;Courier New&quot;&gt;int&lt;br&gt;&lt;/font&gt;UMax number of genes in the gene pool&lt;br&gt;&lt;br&gt;&lt;font style=&quot;font-size: 17px;&quot; face=&quot;Courier New&quot;&gt;mutation_rate&lt;/font&gt;: &lt;font style=&quot;font-size: 17px;&quot; face=&quot;Courier New&quot;&gt;float&lt;br&gt;&lt;/font&gt;Probability of mutation occuring&lt;br&gt;&lt;br&gt;&lt;font style=&quot;font-size: 17px;&quot; face=&quot;Courier New&quot;&gt;mutation_decay&lt;/font&gt;: &lt;font style=&quot;font-size: 17px;&quot; face=&quot;Courier New&quot;&gt;float&lt;br&gt;&lt;/font&gt;Decay rate, applied to mutation_rate at every iteration. Ideally in (0, 1]&lt;font style=&quot;font-size: 17px;&quot; face=&quot;Courier New&quot;&gt;&lt;br&gt;&lt;br&gt;plateau_sensitivity&lt;/font&gt;:&amp;nbsp;&lt;font style=&quot;font-size: 17px;&quot;&gt;&lt;font face=&quot;Courier New&quot;&gt;float&lt;/font&gt;&lt;br&gt;Slope value that will triggers plateau detections&lt;br&gt;&lt;br&gt;&lt;font face=&quot;Courier New&quot;&gt;plateau_sample_size&lt;/font&gt;:&amp;nbsp;&lt;font face=&quot;Courier New&quot;&gt;int&lt;br&gt;&lt;/font&gt;Number of fitness&#39;s used for regression when detecting plateaus.&lt;br&gt;&lt;br&gt;&lt;font face=&quot;Courier New&quot;&gt;iterations_per_epoch: int&lt;/font&gt;&lt;br&gt;If a plateau is not found, a new epoch is autoamtically started after the current iterations surpasses iterations_per_epoch&lt;br&gt;&lt;br&gt;&lt;font face=&quot;Courier New&quot;&gt;epochs: int&lt;br&gt;&lt;/font&gt;Number of epochs to run for (number of plateaus)&lt;br&gt;&lt;/font&gt;&lt;/font&gt;" style="shape=partialRectangle;html=1;whiteSpace=wrap;connectable=0;fillColor=none;top=0;left=0;bottom=0;right=0;align=left;spacingLeft=12;overflow=hidden;strokeColor=#FFFFFF;fontSize=14;verticalAlign=top;spacingTop=6;spacingRight=12;fontColor=#FFFFFF;" vertex="1" parent="GRkVJgraT-jmx8AGfbfF-14">
          <mxGeometry x="710" width="444" height="638" as="geometry">
            <mxRectangle width="444" height="638" as="alternateBounds" />
          </mxGeometry>
        </mxCell>
        <mxCell id="GRkVJgraT-jmx8AGfbfF-18" value="&lt;font color=&quot;#ffffff&quot;&gt;&lt;b&gt;&lt;font style=&quot;font-size: 17px;&quot;&gt;Example Usage:&lt;/font&gt;&lt;/b&gt;&lt;br&gt;&lt;/font&gt;&lt;br&gt;&lt;pre style=&quot;font-family: &amp;quot;JetBrains Mono&amp;quot;, monospace; font-size: 18px;&quot;&gt;&lt;pre style=&quot;font-family: &amp;quot;JetBrains Mono&amp;quot;, monospace;&quot;&gt;&lt;font style=&quot;font-size: 18px;&quot; color=&quot;#61afef&quot;&gt;Plateau_Genetic_Algorithm&lt;/font&gt;&lt;font style=&quot;font-size: 18px;&quot; color=&quot;#ffffff&quot;&gt;(&lt;/font&gt;&lt;font style=&quot;font-size: 18px;&quot; color=&quot;#61afef&quot;&gt;&lt;br&gt;&lt;/font&gt;&lt;font style=&quot;font-size: 18px;&quot; color=&quot;#bbbbbb&quot;&gt;  &lt;/font&gt;&lt;span style=&quot;color: rgb(209, 154, 102);&quot;&gt;gene_shape&lt;/span&gt;&lt;font style=&quot;font-size: 18px;&quot; color=&quot;#bbbbbb&quot;&gt;=(&lt;/font&gt;&lt;span style=&quot;color: rgb(209, 154, 102);&quot;&gt;100&lt;/span&gt;&lt;font style=&quot;font-size: 18px;&quot; color=&quot;#bbbbbb&quot;&gt;, &lt;/font&gt;&lt;span style=&quot;color: rgb(209, 154, 102);&quot;&gt;100&lt;/span&gt;&lt;font style=&quot;font-size: 18px;&quot; color=&quot;#bbbbbb&quot;&gt;),&lt;br&gt;  &lt;/font&gt;&lt;span style=&quot;color: rgb(209, 154, 102);&quot;&gt;num_genes&lt;/span&gt;&lt;font style=&quot;font-size: 18px;&quot; color=&quot;#bbbbbb&quot;&gt;=&lt;/font&gt;&lt;span style=&quot;color: rgb(209, 154, 102);&quot;&gt;25&lt;/span&gt;&lt;font style=&quot;font-size: 18px;&quot; color=&quot;#bbbbbb&quot;&gt;,&lt;br&gt;  &lt;/font&gt;&lt;span style=&quot;color: rgb(209, 154, 102);&quot;&gt;mutation_rate&lt;/span&gt;&lt;font style=&quot;font-size: 18px;&quot; color=&quot;#bbbbbb&quot;&gt;=&lt;/font&gt;&lt;span style=&quot;color: rgb(209, 154, 102);&quot;&gt;0.25&lt;/span&gt;&lt;font style=&quot;font-size: 18px;&quot; color=&quot;#bbbbbb&quot;&gt;,&lt;br&gt;  &lt;/font&gt;&lt;span style=&quot;color: rgb(209, 154, 102);&quot;&gt;iterations&lt;/span&gt;&lt;font style=&quot;font-size: 18px;&quot; color=&quot;#bbbbbb&quot;&gt;=&lt;/font&gt;&lt;span style=&quot;color: rgb(209, 154, 102);&quot;&gt;100&lt;/span&gt;&lt;font style=&quot;font-size: 18px;&quot; color=&quot;#bbbbbb&quot;&gt;, &lt;br&gt;)&lt;/font&gt;&lt;/pre&gt;&lt;/pre&gt;&lt;pre style=&quot;color: rgb(187, 187, 187); font-size: 18px;&quot;&gt;&lt;font face=&quot;Helvetica&quot;&gt;Full script using this object:&lt;/font&gt;&lt;/pre&gt;&lt;pre style=&quot;color: rgb(187, 187, 187); font-size: 18px;&quot;&gt;&lt;font style=&quot;background-color: initial;&quot; face=&quot;Helvetica&quot;&gt;/&lt;/font&gt;&lt;font style=&quot;background-color: initial;&quot; face=&quot;Helvetica&quot;&gt;scripts/GA_examples/Simple_GA_Example.py&lt;/font&gt;&lt;span style=&quot;background-color: initial; font-family: &amp;quot;JetBrains Mono&amp;quot;, monospace;&quot;&gt;&lt;/span&gt;&lt;/pre&gt;" style="shape=partialRectangle;html=1;whiteSpace=wrap;connectable=0;fillColor=none;top=0;left=0;bottom=0;right=0;align=left;spacingLeft=12;overflow=hidden;strokeColor=#FFFFFF;fontSize=14;verticalAlign=top;spacingTop=6;spacingRight=12;" vertex="1" parent="GRkVJgraT-jmx8AGfbfF-14">
          <mxGeometry x="1154" width="436" height="638" as="geometry">
            <mxRectangle width="436" height="638" as="alternateBounds" />
          </mxGeometry>
        </mxCell>
        <mxCell id="GRkVJgraT-jmx8AGfbfF-19" value="DGA.Genetic_Algorithm" style="shape=table;startSize=52;container=1;collapsible=0;childLayout=tableLayout;fixedRows=1;rowLines=0;fontStyle=0;strokeColor=#FFFFFF;fontSize=28;fontFamily=Courier New;fillColor=none;fontColor=#FFFFFF;" vertex="1" parent="1">
          <mxGeometry x="3280" y="940" width="1590" height="480" as="geometry" />
        </mxCell>
        <mxCell id="GRkVJgraT-jmx8AGfbfF-20" value="" style="shape=tableRow;horizontal=0;startSize=0;swimlaneHead=0;swimlaneBody=0;top=0;left=0;bottom=0;right=0;collapsible=0;dropTarget=0;fillColor=none;points=[[0,0.5],[1,0.5]];portConstraint=eastwest;strokeColor=#FFFFFF;fontSize=16;align=center;" vertex="1" parent="GRkVJgraT-jmx8AGfbfF-19">
          <mxGeometry y="52" width="1590" height="428" as="geometry" />
        </mxCell>
        <mxCell id="GRkVJgraT-jmx8AGfbfF-21" value="Genetic_Algorithm()" style="shape=partialRectangle;html=1;whiteSpace=wrap;connectable=0;fillColor=none;top=0;left=0;bottom=0;right=0;overflow=hidden;pointerEvents=1;strokeColor=#FFFFFF;fontSize=17;fontFamily=Courier New;fontColor=#FFFFFF;" vertex="1" parent="GRkVJgraT-jmx8AGfbfF-20">
          <mxGeometry width="290" height="428" as="geometry">
            <mxRectangle width="290" height="428" as="alternateBounds" />
          </mxGeometry>
        </mxCell>
        <mxCell id="GRkVJgraT-jmx8AGfbfF-22" value="&lt;div&gt;&lt;font face=&quot;Helvetica&quot;&gt;&lt;b&gt;&lt;u&gt;Description&lt;/u&gt;&lt;/b&gt;&lt;/font&gt;&lt;/div&gt;&lt;div&gt;&lt;font face=&quot;Helvetica&quot;&gt;&lt;b&gt;&lt;u&gt;&lt;br&gt;&lt;/u&gt;&lt;/b&gt;&lt;/font&gt;&lt;/div&gt;&lt;div&gt;&lt;font face=&quot;Helvetica&quot;&gt;This is simple genetic algorithm which maintains a &#39;gene pool&#39; of tested parameters and their fitness&#39;s. On each iteration (each fetch_gene() call), a new gene is created, and the weakest gene is ejected from the pool. This way, the pool stays a consistent size while still optimizing for fitness.&lt;/font&gt;&lt;/div&gt;&lt;div&gt;&lt;font face=&quot;Helvetica&quot;&gt;&lt;br&gt;&lt;/font&gt;&lt;/div&gt;&lt;div&gt;&lt;font face=&quot;Helvetica&quot;&gt;When create_new_gene() is called, the new gene is created by selecting 2 parents, crossing them at a random point (all values before random point from parent 1, all values after from parent 2), and finally a random mutation that can occur with probability mutation_rate.&amp;nbsp;&lt;/font&gt;&lt;/div&gt;&lt;div&gt;&lt;font face=&quot;Helvetica&quot;&gt;&lt;br&gt;&lt;/font&gt;&lt;/div&gt;&lt;div&gt;&lt;font face=&quot;Helvetica&quot;&gt;Run ends at maximum iterations (&#39;iterations&#39; argument)&lt;/font&gt;&lt;/div&gt;&lt;div&gt;&lt;font face=&quot;Helvetica&quot;&gt;&lt;br&gt;&lt;/font&gt;&lt;/div&gt;" style="shape=partialRectangle;html=1;connectable=0;fillColor=none;top=0;left=0;bottom=0;right=0;overflow=hidden;pointerEvents=1;strokeColor=#FFFFFF;fontSize=17;fontFamily=Courier New;align=left;spacingTop=6;spacingLeft=12;spacingRight=12;verticalAlign=top;whiteSpace=wrap;fontColor=#FFFFFF;" vertex="1" parent="GRkVJgraT-jmx8AGfbfF-20">
          <mxGeometry x="290" width="430" height="428" as="geometry">
            <mxRectangle width="430" height="428" as="alternateBounds" />
          </mxGeometry>
        </mxCell>
        <mxCell id="GRkVJgraT-jmx8AGfbfF-23" value="&lt;font style=&quot;font-size: 17px;&quot;&gt;&lt;b&gt;&lt;u&gt;Arguments&lt;/u&gt;&lt;/b&gt;&lt;br&gt;&lt;/font&gt;&lt;br&gt;&lt;font face=&quot;Courier New&quot;&gt;gene_shape&lt;/font&gt;: &lt;font face=&quot;Courier New&quot;&gt;tuple&lt;br&gt;&lt;/font&gt;Shape of gene (assumed genes are array-like)&lt;br&gt;&lt;br&gt;&lt;font face=&quot;Courier New&quot;&gt;num_genes&lt;/font&gt;: &lt;font face=&quot;Courier New&quot;&gt;int&lt;br&gt;&lt;/font&gt;UMax number of genes in the gene pool&lt;br&gt;&lt;br&gt;&lt;font face=&quot;Courier New&quot;&gt;mutation_rate&lt;/font&gt;: &lt;font face=&quot;Courier New&quot;&gt;float&lt;br&gt;&lt;/font&gt;Probability of mutation occuring&lt;br&gt;&lt;br&gt;&lt;font face=&quot;Courier New&quot;&gt;iterations&lt;/font&gt;: &lt;font face=&quot;Courier New&quot;&gt;int&lt;br&gt;&lt;/font&gt;Total number of genes to test (100 iterations means 100 genes generated &amp;amp; tested)" style="shape=partialRectangle;html=1;whiteSpace=wrap;connectable=0;fillColor=none;top=0;left=0;bottom=0;right=0;align=left;spacingLeft=12;overflow=hidden;strokeColor=#FFFFFF;fontSize=14;verticalAlign=top;spacingTop=6;fontColor=#FFFFFF;" vertex="1" parent="GRkVJgraT-jmx8AGfbfF-20">
          <mxGeometry x="720" width="450" height="428" as="geometry">
            <mxRectangle width="450" height="428" as="alternateBounds" />
          </mxGeometry>
        </mxCell>
        <mxCell id="GRkVJgraT-jmx8AGfbfF-24" value="&lt;font color=&quot;#ffffff&quot;&gt;&lt;b&gt;&lt;font style=&quot;font-size: 17px;&quot;&gt;Example Usage:&lt;/font&gt;&lt;/b&gt;&lt;br&gt;&lt;/font&gt;&lt;br&gt;&lt;pre style=&quot;font-family: &amp;quot;JetBrains Mono&amp;quot;, monospace; font-size: 18px;&quot;&gt;&lt;pre style=&quot;font-family: &amp;quot;JetBrains Mono&amp;quot;, monospace;&quot;&gt;&lt;font style=&quot;font-size: 18px;&quot; color=&quot;#61afef&quot;&gt;Genetic_Algorithm&lt;/font&gt;&lt;font style=&quot;font-size: 18px;&quot; color=&quot;#ffffff&quot;&gt;(&lt;/font&gt;&lt;font style=&quot;font-size: 18px;&quot; color=&quot;#61afef&quot;&gt;&lt;br&gt;&lt;/font&gt;&lt;font style=&quot;font-size: 18px;&quot; color=&quot;#bbbbbb&quot;&gt;  &lt;/font&gt;&lt;span style=&quot;color: rgb(209, 154, 102);&quot;&gt;gene_shape&lt;/span&gt;&lt;font style=&quot;font-size: 18px;&quot; color=&quot;#bbbbbb&quot;&gt;=(&lt;/font&gt;&lt;span style=&quot;color: rgb(209, 154, 102);&quot;&gt;100&lt;/span&gt;&lt;font style=&quot;font-size: 18px;&quot; color=&quot;#bbbbbb&quot;&gt;, &lt;/font&gt;&lt;span style=&quot;color: rgb(209, 154, 102);&quot;&gt;100&lt;/span&gt;&lt;font style=&quot;font-size: 18px;&quot; color=&quot;#bbbbbb&quot;&gt;),&lt;br&gt;  &lt;/font&gt;&lt;span style=&quot;color: rgb(209, 154, 102);&quot;&gt;num_genes&lt;/span&gt;&lt;font style=&quot;font-size: 18px;&quot; color=&quot;#bbbbbb&quot;&gt;=&lt;/font&gt;&lt;span style=&quot;color: rgb(209, 154, 102);&quot;&gt;25&lt;/span&gt;&lt;font style=&quot;font-size: 18px;&quot; color=&quot;#bbbbbb&quot;&gt;,&lt;br&gt;  &lt;/font&gt;&lt;span style=&quot;color: rgb(209, 154, 102);&quot;&gt;mutation_rate&lt;/span&gt;&lt;font style=&quot;font-size: 18px;&quot; color=&quot;#bbbbbb&quot;&gt;=&lt;/font&gt;&lt;span style=&quot;color: rgb(209, 154, 102);&quot;&gt;0.25&lt;/span&gt;&lt;font style=&quot;font-size: 18px;&quot; color=&quot;#bbbbbb&quot;&gt;,&lt;br&gt;  &lt;/font&gt;&lt;span style=&quot;color: rgb(209, 154, 102);&quot;&gt;iterations&lt;/span&gt;&lt;font style=&quot;font-size: 18px;&quot; color=&quot;#bbbbbb&quot;&gt;=&lt;/font&gt;&lt;span style=&quot;color: rgb(209, 154, 102);&quot;&gt;100&lt;/span&gt;&lt;font style=&quot;font-size: 18px;&quot; color=&quot;#bbbbbb&quot;&gt;, &lt;br&gt;)&lt;/font&gt;&lt;/pre&gt;&lt;/pre&gt;&lt;pre style=&quot;color: rgb(187, 187, 187); font-size: 18px;&quot;&gt;&lt;font face=&quot;Helvetica&quot;&gt;Full script using this object:&lt;/font&gt;&lt;/pre&gt;&lt;pre style=&quot;color: rgb(187, 187, 187); font-size: 18px;&quot;&gt;&lt;font style=&quot;background-color: initial;&quot; face=&quot;Helvetica&quot;&gt;/&lt;/font&gt;&lt;font style=&quot;background-color: initial;&quot; face=&quot;Helvetica&quot;&gt;scripts/GA_examples/Simple_GA_Example.py&lt;/font&gt;&lt;span style=&quot;background-color: initial; font-family: &amp;quot;JetBrains Mono&amp;quot;, monospace;&quot;&gt;&lt;/span&gt;&lt;/pre&gt;" style="shape=partialRectangle;html=1;whiteSpace=wrap;connectable=0;fillColor=none;top=0;left=0;bottom=0;right=0;align=left;spacingLeft=12;overflow=hidden;strokeColor=#FFFFFF;fontSize=14;verticalAlign=top;spacingTop=6;" vertex="1" parent="GRkVJgraT-jmx8AGfbfF-20">
          <mxGeometry x="1170" width="420" height="428" as="geometry">
            <mxRectangle width="420" height="428" as="alternateBounds" />
          </mxGeometry>
        </mxCell>
        <mxCell id="GRkVJgraT-jmx8AGfbfF-26" value="&lt;p style=&quot;line-height: 102%;&quot;&gt;&lt;/p&gt;&lt;h1 style=&quot;&quot;&gt;&lt;font color=&quot;#ffffff&quot; style=&quot;font-size: 50px;&quot;&gt;Example Scripts&lt;/font&gt;&lt;/h1&gt;&lt;b style=&quot;font-size: 24px;&quot;&gt;&lt;font color=&quot;#ffffff&quot; style=&quot;font-size: 24px;&quot;&gt;ANN_Example&lt;/font&gt;&lt;/b&gt;&lt;p style=&quot;line-height: 102%; font-size: 24px;&quot;&gt;&lt;span style=&quot;font-family: &amp;quot;Courier New&amp;quot;; background-color: initial;&quot;&gt;&lt;font color=&quot;#cccccc&quot; style=&quot;font-size: 24px;&quot;&gt;/Distributed/scripts/ANN_example/ANN_Example.py&lt;/font&gt;&lt;/span&gt;&lt;/p&gt;&lt;p style=&quot;font-size: 24px;&quot;&gt;&lt;font color=&quot;#cccccc&quot; style=&quot;font-size: 24px;&quot;&gt;Trains small ANN on MNIST using the DGA.Genetic_Algorithm optimizer. Good example of how to use Model.load_data() if you&#39;re not sure how.&lt;/font&gt;&lt;/p&gt;&lt;p style=&quot;font-size: 24px;&quot;&gt;&lt;font color=&quot;#ffffff&quot; style=&quot;font-size: 24px;&quot;&gt;&lt;br style=&quot;&quot;&gt;&lt;/font&gt;&lt;/p&gt;&lt;p style=&quot;font-size: 24px;&quot;&gt;&lt;b style=&quot;&quot;&gt;&lt;font color=&quot;#ffffff&quot; style=&quot;font-size: 24px;&quot;&gt;GA_Examples&lt;/font&gt;&lt;/b&gt;&lt;/p&gt;&lt;p style=&quot;font-size: 24px;&quot;&gt;&lt;font color=&quot;#cccccc&quot; style=&quot;font-size: 24px;&quot; face=&quot;Courier New&quot;&gt;/Distributed/scripts/GA_example/Complex_GA_Example.py&lt;br style=&quot;&quot;&gt;&lt;/font&gt;&lt;/p&gt;&lt;p style=&quot;font-size: 24px;&quot;&gt;&lt;font color=&quot;#cccccc&quot; style=&quot;font-size: 24px;&quot;&gt;Simple_GA_Example.py trains a simple vector-matching model using the DGA.Genetic_Algorithm optimizer. A single vector is randomly generated and set as the &#39;target&#39;, and the optimizer must try to find/estimate this target.&amp;nbsp;&lt;/font&gt;&lt;/p&gt;&lt;font color=&quot;#cccccc&quot; style=&quot;font-size: 24px;&quot; face=&quot;Courier New&quot;&gt;/Distributed/scripts/GA_exampl&lt;span style=&quot;background-color: initial;&quot;&gt;/Simple_GA_Example.py&lt;/span&gt;&lt;br style=&quot;&quot;&gt;&lt;/font&gt;&lt;p style=&quot;font-size: 24px;&quot;&gt;&lt;font color=&quot;#cccccc&quot; style=&quot;font-size: 24px;&quot;&gt;Complex_GA_Example.py trains a complex vector-matching model using DGA.Plateau_Genetic_Algorithm optimizer. &lt;i style=&quot;&quot;&gt;n &lt;/i&gt;vectors are randomly generated, and the plateau algorithm must find all vectors.&lt;/font&gt;&lt;/p&gt;&lt;p style=&quot;font-size: 24px;&quot;&gt;&lt;font color=&quot;#ffffff&quot; style=&quot;font-size: 24px;&quot;&gt;&lt;br style=&quot;&quot;&gt;&lt;/font&gt;&lt;/p&gt;&lt;p style=&quot;font-size: 24px;&quot;&gt;&lt;b style=&quot;&quot;&gt;&lt;font color=&quot;#ffffff&quot; style=&quot;font-size: 24px;&quot;&gt;Local_Example&lt;/font&gt;&lt;/b&gt;&lt;/p&gt;&lt;p style=&quot;font-size: 24px;&quot;&gt;&lt;font color=&quot;#ffffff&quot; style=&quot;font-size: 24px;&quot; face=&quot;Courier New&quot;&gt;/&lt;/font&gt;&lt;font color=&quot;#b3b3b3&quot; style=&quot;font-size: 24px;&quot; face=&quot;Courier New&quot;&gt;Distributed/scripts/Local_example/Local_Example.py&lt;br style=&quot;&quot;&gt;&lt;/font&gt;&lt;/p&gt;&lt;div style=&quot;font-size: 24px;&quot;&gt;&lt;font color=&quot;#b3b3b3&quot; style=&quot;font-size: 24px;&quot;&gt;This example trains a vector-matching model using a DGA.Synchronized.&amp;nbsp;&lt;/font&gt;&lt;/div&gt;&lt;p style=&quot;font-size: 24px;&quot;&gt;&lt;font color=&quot;#ffffff&quot; style=&quot;font-size: 24px;&quot;&gt;&lt;br style=&quot;&quot;&gt;&lt;/font&gt;&lt;/p&gt;&lt;p style=&quot;font-size: 24px;&quot;&gt;&lt;b style=&quot;&quot;&gt;&lt;font color=&quot;#ffffff&quot; style=&quot;font-size: 24px;&quot;&gt;SLURM_Example&lt;/font&gt;&lt;/b&gt;&lt;/p&gt;&lt;p style=&quot;font-size: 24px;&quot;&gt;&lt;font color=&quot;#cccccc&quot; style=&quot;font-size: 24px;&quot; face=&quot;Courier New&quot;&gt;/Distributed/scripts/SLURM_example/SLURM_Example.py&lt;br style=&quot;&quot;&gt;&lt;/font&gt;&lt;/p&gt;&lt;div style=&quot;font-size: 24px;&quot;&gt;&lt;font color=&quot;#cccccc&quot; style=&quot;font-size: 24px;&quot;&gt;&lt;i style=&quot;&quot;&gt;Need SLURM based system to run this. &lt;/i&gt;Trains a vector-matching model using SLURM. Nodes are queued according to the sbatch_script.sh provided in the same directory.&lt;/font&gt;&lt;/div&gt;&lt;p&gt;&lt;/p&gt;" style="text;html=1;strokeColor=none;fillColor=none;spacing=5;spacingTop=-20;whiteSpace=wrap;overflow=hidden;rounded=0;fontSize=22;" vertex="1" parent="1">
          <mxGeometry x="4973" y="940" width="1224" height="1180" as="geometry" />
        </mxCell>
        <mxCell id="GRkVJgraT-jmx8AGfbfF-27" value="DGA.Local" style="shape=table;startSize=52;container=1;collapsible=0;childLayout=tableLayout;fixedRows=1;rowLines=0;fontStyle=0;strokeColor=#FFFFFF;fontSize=28;fontFamily=Courier New;fillColor=none;fontColor=#FFFFFF;" vertex="1" parent="1">
          <mxGeometry x="4579" y="555.5" width="430" height="289" as="geometry" />
        </mxCell>
        <mxCell id="GRkVJgraT-jmx8AGfbfF-28" value="" style="shape=tableRow;horizontal=0;startSize=0;swimlaneHead=0;swimlaneBody=0;top=0;left=0;bottom=0;right=0;collapsible=0;dropTarget=0;fillColor=none;points=[[0,0.5],[1,0.5]];portConstraint=eastwest;strokeColor=inherit;fontSize=16;" vertex="1" parent="GRkVJgraT-jmx8AGfbfF-27">
          <mxGeometry y="52" width="430" height="237" as="geometry" />
        </mxCell>
        <mxCell id="GRkVJgraT-jmx8AGfbfF-29" value="Synchronized()" style="shape=partialRectangle;html=1;whiteSpace=wrap;connectable=0;fillColor=none;top=0;left=0;bottom=0;right=0;overflow=hidden;pointerEvents=1;strokeColor=#FFFFFF;fontSize=17;fontFamily=Courier New;fontColor=#FFFFFF;" vertex="1" parent="GRkVJgraT-jmx8AGfbfF-28">
          <mxGeometry width="180" height="237" as="geometry">
            <mxRectangle width="180" height="237" as="alternateBounds" />
          </mxGeometry>
        </mxCell>
        <mxCell id="GRkVJgraT-jmx8AGfbfF-30" value="&lt;span style=&quot;font-family: Helvetica;&quot;&gt;&lt;b style=&quot;text-decoration-line: underline;&quot;&gt;Description&lt;/b&gt;&lt;br&gt;&lt;br&gt;Same useage as Server (trains a Model with an Algorithm), except it does so using a single process.&lt;br&gt;&lt;br&gt;Same args as Server, but &lt;i&gt;no &lt;/i&gt;num_parallel_process argument.&amp;nbsp;&lt;br&gt;&lt;/span&gt;" style="shape=partialRectangle;html=1;whiteSpace=wrap;connectable=0;fillColor=none;top=0;left=0;bottom=0;right=0;overflow=hidden;pointerEvents=1;strokeColor=inherit;fontSize=17;fontFamily=Courier New;align=left;verticalAlign=top;spacingTop=6;spacingLeft=12;spacingRight=12;fontColor=#FFFFFF;" vertex="1" parent="GRkVJgraT-jmx8AGfbfF-28">
          <mxGeometry x="180" width="250" height="237" as="geometry">
            <mxRectangle width="250" height="237" as="alternateBounds" />
          </mxGeometry>
        </mxCell>
        <mxCell id="X-d_dMeBAabm0eH_F42k-1" value="&lt;h1 style=&quot;&quot;&gt;&lt;font style=&quot;font-size: 89px;&quot;&gt;Provided Server &amp;amp; Algorithm Classes&lt;/font&gt;&lt;/h1&gt;&lt;div style=&quot;font-size: 49px;&quot;&gt;&lt;font style=&quot;font-size: 49px;&quot;&gt;&lt;br&gt;&lt;/font&gt;&lt;/div&gt;&lt;div style=&quot;font-size: 49px;&quot;&gt;&lt;font style=&quot;font-size: 49px;&quot;&gt;Listed here are the Server and Algorithm classes provided with DGA. These objects can be imported into your own file and used as follows:&lt;/font&gt;&lt;/div&gt;&lt;div style=&quot;font-size: 49px;&quot;&gt;&lt;font style=&quot;font-size: 49px;&quot;&gt;&lt;br&gt;&lt;/font&gt;&lt;/div&gt;&lt;div style=&quot;font-size: 24px;&quot;&gt;&lt;pre style=&quot;font-family: &amp;quot;JetBrains Mono&amp;quot;, monospace;&quot;&gt;&lt;br&gt;&lt;/pre&gt;&lt;/div&gt;" style="text;html=1;strokeColor=none;fillColor=none;spacing=5;spacingTop=-20;whiteSpace=wrap;overflow=hidden;rounded=0;fontColor=#FFFFFF;" vertex="1" parent="1">
          <mxGeometry x="4603" y="67" width="1603" height="345" as="geometry" />
        </mxCell>
        <mxCell id="X-d_dMeBAabm0eH_F42k-2" value="&lt;pre style=&quot;border-color: rgb(0, 0, 0); color: rgb(187, 187, 187); font-size: 36px; font-style: normal; font-variant-ligatures: normal; font-variant-caps: normal; font-weight: 400; letter-spacing: normal; orphans: 2; text-align: left; text-indent: 0px; text-transform: none; widows: 2; word-spacing: 0px; -webkit-text-stroke-width: 0px; text-decoration-thickness: initial; text-decoration-style: initial; text-decoration-color: initial; font-family: &amp;quot;JetBrains Mono&amp;quot;, monospace;&quot;&gt;from DGA.Algorithm &lt;span style=&quot;border-color: rgb(0, 0, 0); color: rgb(213, 95, 222); font-size: 36px;&quot;&gt;import &lt;/span&gt;Plateau_Genetic_Algorithm&lt;br style=&quot;border-color: rgb(0, 0, 0); font-size: 36px;&quot;&gt;&lt;/pre&gt;&lt;pre style=&quot;border-color: rgb(0, 0, 0); color: rgb(187, 187, 187); font-size: 36px; font-style: normal; font-variant-ligatures: normal; font-variant-caps: normal; font-weight: 400; letter-spacing: normal; orphans: 2; text-align: left; text-indent: 0px; text-transform: none; widows: 2; word-spacing: 0px; -webkit-text-stroke-width: 0px; text-decoration-thickness: initial; text-decoration-style: initial; text-decoration-color: initial; font-family: &amp;quot;JetBrains Mono&amp;quot;, monospace;&quot;&gt;&lt;div style=&quot;border-color: rgb(0, 0, 0); font-size: 36px;&quot;&gt;&lt;pre style=&quot;border-color: rgb(0, 0, 0); font-family: &amp;quot;JetBrains Mono&amp;quot;, monospace; font-size: 36px;&quot;&gt;&lt;div style=&quot;border-color: rgb(0, 0, 0); font-size: 36px;&quot;&gt;&lt;pre style=&quot;border-color: rgb(0, 0, 0); font-family: &amp;quot;JetBrains Mono&amp;quot;, monospace; font-size: 36px;&quot;&gt;from DGA.Algorithm &lt;span style=&quot;border-color: rgb(0, 0, 0); color: rgb(213, 95, 222); font-size: 36px;&quot;&gt;import &lt;/span&gt;Genetic_Algorithm&lt;br style=&quot;border-color: rgb(0, 0, 0); font-size: 36px;&quot;&gt;&lt;/pre&gt;&lt;/div&gt;&lt;/pre&gt;&lt;pre style=&quot;border-color: rgb(0, 0, 0); font-family: &amp;quot;JetBrains Mono&amp;quot;, monospace; font-size: 36px;&quot;&gt;from DGA.Server &lt;span style=&quot;border-color: rgb(0, 0, 0); color: rgb(213, 95, 222); font-size: 36px;&quot;&gt;import &lt;/span&gt;Server&lt;br style=&quot;border-color: rgb(0, 0, 0); font-size: 36px;&quot;&gt;&lt;/pre&gt;&lt;pre style=&quot;border-color: rgb(0, 0, 0); font-family: &amp;quot;JetBrains Mono&amp;quot;, monospace; font-size: 36px;&quot;&gt;&lt;div style=&quot;border-color: rgb(0, 0, 0); font-size: 36px;&quot;&gt;&lt;pre style=&quot;border-color: rgb(0, 0, 0); font-family: &amp;quot;JetBrains Mono&amp;quot;, monospace; font-size: 36px;&quot;&gt;from DGA.Server &lt;span style=&quot;border-color: rgb(0, 0, 0); color: rgb(213, 95, 222); font-size: 36px;&quot;&gt;import &lt;/span&gt;Server_SLURM&lt;/pre&gt;&lt;/div&gt;&lt;/pre&gt;&lt;/div&gt;&lt;/pre&gt;" style="text;whiteSpace=wrap;html=1;labelBackgroundColor=none;fontSize=36;" vertex="1" parent="1">
          <mxGeometry x="5110" y="455" width="1140" height="385" as="geometry" />
        </mxCell>
      </root>
    </mxGraphModel>
  </diagram>
</mxfile>
